<svg width="128" height="128" viewBox="0 0 128 128" fill="none" xmlns="http://www.w3.org/2000/svg">
<g clip-path="url(#clip0_5271_37413)">
<rect x="15" y="25" width="97" height="22" rx="11" fill="#ffc72d"/>
<path d="M119.222 22.5693H8.77809C3.93799 22.5693 0 26.5073 0 31.3479V63.521C0 71.5696 6.54822 78.1178 14.5968 78.1178H113.404C121.452 78.1178 128 71.5696 128 63.521V31.3479C128 26.5073 124.063 22.5693 119.222 22.5693ZM19.0303 29.6131H108.97V37.9057C108.97 41.166 106.317 43.819 103.057 43.819H24.9436C21.6833 43.819 19.0308 41.1665 19.0308 37.9057L19.0303 29.6131ZM120.956 63.521C120.956 67.6854 117.568 71.074 113.403 71.074H14.5963C10.4319 71.074 7.0433 67.6859 7.0433 63.521V31.3479C7.0433 30.3915 7.82114 29.6131 8.77759 29.6131H11.986V37.9057C11.986 45.0501 17.7987 50.8628 24.9426 50.8628H103.056C110.2 50.8628 116.012 45.0501 116.012 37.9057V29.6131H119.221C120.177 29.6131 120.955 30.3915 120.955 31.3479L120.956 63.521Z" fill="black"/>
<path d="M112.491 59.9971H15.5082C13.5631 59.9971 11.9863 61.5739 11.9863 63.519C11.9863 65.4641 13.5631 67.0409 15.5082 67.0409H112.491C114.436 67.0409 116.013 65.4641 116.013 63.519C116.013 61.5739 114.436 59.9971 112.491 59.9971Z" fill="black"/>
<path d="M42.357 89.2339C42.2393 89.168 42.1296 89.1041 42.0274 89.0427C43.6857 88.3298 44.5536 86.4546 43.9786 84.7078C43.3703 82.8603 41.3799 81.855 39.5324 82.4633C38.6575 82.7511 34.2732 84.3858 33.8934 88.2951C33.6327 90.9788 35.3202 93.3611 38.909 95.3761C40.0698 96.0277 40.347 96.5167 40.3535 96.6027C40.3898 97.0923 39.4338 98.3818 38.5111 99.0977C36.9589 100.27 36.6505 102.478 37.8223 104.03C38.5146 104.948 39.5686 105.431 40.6358 105.431C41.3749 105.431 42.12 105.199 42.755 104.719C43.2621 104.336 47.6997 100.843 47.3807 96.1278C47.2499 94.1958 46.2718 91.4316 42.357 89.2339Z" fill="black"/>
<path d="M65.7242 89.2339C65.6064 89.168 65.4968 89.1041 65.3946 89.0427C67.0529 88.3298 67.9208 86.4546 67.3458 84.7078C66.7375 82.8603 64.7481 81.855 62.8996 82.4633C62.0247 82.7511 57.6404 84.3858 57.2605 88.2951C56.9999 90.9788 58.6874 93.3611 62.2762 95.3761C63.4369 96.0277 63.7142 96.5167 63.7207 96.6027C63.7569 97.0923 62.801 98.3818 61.8783 99.0977C60.3261 100.27 60.0177 102.478 61.1895 104.03C61.8818 104.948 62.9358 105.431 64.003 105.431C64.7421 105.431 65.4872 105.199 66.1221 104.719C66.6293 104.336 71.0669 100.843 70.7479 96.1278C70.6171 94.1958 69.6395 91.4316 65.7242 89.2339Z" fill="black"/>
<path d="M89.0914 89.2339C88.9736 89.168 88.8639 89.1041 88.7618 89.0427C90.4201 88.3298 91.288 86.4546 90.7129 84.7078C90.1047 82.8603 88.1148 81.855 86.2668 82.4633C85.3918 82.7511 81.0076 84.3858 80.6277 88.2951C80.3671 90.9788 82.0546 93.3611 85.6434 95.3761C86.8041 96.0277 87.0814 96.5167 87.0879 96.6027C87.1241 97.0923 86.1682 98.3818 85.2454 99.0977C83.6933 100.27 83.3849 102.478 84.5567 104.03C85.249 104.948 86.303 105.431 87.3702 105.431C88.1093 105.431 88.8544 105.199 89.4893 104.719C89.9965 104.336 94.4341 100.843 94.1151 96.1278C93.9843 94.1958 93.0067 91.4316 89.0914 89.2339Z" fill="black"/>
</g>
<defs>
<clipPath id="clip0_5271_37413">
<rect width="128" height="128" fill="white"/>
</clipPath>
</defs>
</svg>
