<?xml version="1.0" encoding="UTF-8"?>
<svg id="Layer_1" data-name="Layer 1" xmlns="http://www.w3.org/2000/svg" viewBox="0 0 143.66 32.83">
  <defs>
    <style>
      .cls-1 {
        fill: #f2d55f;
      }
      .cls-2 {
        fill: none;
      }
    </style>
  </defs>
  <path class="cls-2" d="M13.36,18.37h-4.93v8.29h4.93c1.7,0,2.98-.35,3.83-1.04,.85-.69,1.28-1.74,1.28-3.14s-.43-2.4-1.28-3.08c-.85-.69-2.13-1.03-3.83-1.03Z"/>
  <path class="cls-2" d="M16.09,11.97c.69-.56,1.03-1.4,1.03-2.5s-.34-1.92-1.03-2.49c-.69-.57-1.7-.86-3.02-.86h-4.64v6.7h4.64c1.33,0,2.34-.28,3.02-.85Z"/>
  <path class="cls-2" d="M126.88,5.91c-2.56,0-4.55,.92-5.96,2.75-1.42,1.84-2.12,4.42-2.12,7.76s.71,5.9,2.12,7.73c1.42,1.84,3.4,2.76,5.96,2.76s4.57-.92,5.99-2.76c1.42-1.84,2.13-4.41,2.13-7.73s-.71-5.92-2.13-7.76c-1.42-1.84-3.41-2.75-5.99-2.75Z"/>
  <path d="M21.18,15.28c1.42-.52,2.51-1.32,3.24-2.41,.74-1.08,1.1-2.39,1.1-3.93,0-2.92-1.02-5.05-3.05-6.38-2.03-1.33-5.32-1.99-9.85-1.99H0v31.64H13.97c4.34,0,7.58-.75,9.7-2.25,2.13-1.5,3.19-3.77,3.19-6.82,0-1.99-.49-3.67-1.48-5.04-.99-1.37-2.39-2.31-4.2-2.82ZM8.43,6.12h4.64c1.33,0,2.34,.29,3.02,.86,.69,.57,1.03,1.4,1.03,2.49s-.34,1.94-1.03,2.5c-.69,.56-1.7,.85-3.02,.85h-4.64V6.12Zm8.76,19.5c-.85,.69-2.13,1.04-3.83,1.04h-4.93v-8.29h4.93c1.7,0,2.98,.34,3.83,1.03,.85,.69,1.28,1.71,1.28,3.08s-.43,2.45-1.28,3.14Z"/>
  <polygon points="42.53 18.8 55.97 18.8 55.97 12.63 42.53 12.63 42.53 12.62 34.11 12.62 34.11 32.21 57.3 32.21 57.3 26.04 42.53 26.04 42.53 18.8"/>
  <rect x="64.69" y=".57" width="8.43" height="31.64"/>
  <polygon class="cls-1" points="110.09 .22 100.86 .22 96.8 6.38 101.07 13.5 110.09 .22"/>
  <polygon points="93.42 11.85 85.99 .57 76.79 .57 89.22 18.88 89.22 32.21 97.65 32.21 97.65 18.88 97.67 18.85 93.45 11.81 93.42 11.85"/>
  <path d="M139.2,4.37c-2.97-2.91-7.08-4.37-12.33-4.37s-9.34,1.46-12.32,4.37c-2.98,2.91-4.47,6.93-4.47,12.06s1.49,9.13,4.47,12.04,7.08,4.37,12.32,4.37,9.36-1.46,12.33-4.37c2.97-2.91,4.46-6.92,4.46-12.04s-1.49-9.15-4.46-12.06Zm-6.34,19.79c-1.42,1.84-3.41,2.76-5.99,2.76s-4.55-.92-5.96-2.76c-1.42-1.84-2.12-4.41-2.12-7.73s.71-5.92,2.12-7.76c1.42-1.84,3.4-2.75,5.96-2.75s4.57,.92,5.99,2.75c1.42,1.84,2.13,4.42,2.13,7.76s-.71,5.9-2.13,7.73Z"/>
  <polygon class="cls-1" points="34.11 .57 56.82 .57 56.82 6.74 42.89 6.74 42.89 7.22 56.89 7.22 56.89 .22 33.89 .22 33.89 6.72 34.11 6.72 34.11 .57"/>
  <polygon class="cls-1" points="42.89 6.72 42.89 6.74 56.82 6.74 56.82 .57 34.11 .57 34.11 6.72 34.15 6.72 42.89 6.72"/>
  <rect class="cls-1" x="33.89" y="6.72" width=".21" height=".5"/>
  <rect class="cls-1" x="42.53" y="6.74" width=".36" height=".49"/>
  <polygon class="cls-1" points="42.89 6.74 42.89 6.72 34.15 6.72 34.11 6.72 34.11 7.22 42.53 7.22 42.53 6.74 42.89 6.74"/>
</svg>