<svg id="Layer_1" data-name="Layer 1" xmlns="http://www.w3.org/2000/svg" viewBox="0 0 143.66 32.83"><defs><style>.cls-1{fill:none;}.cls-2{fill:#fff;}.cls-3{fill:#ffc82d;}</style></defs><path class="cls-1" d="M17.47,38.15H12.53v8.28h4.94a6,6,0,0,0,3.82-1,3.81,3.81,0,0,0,1.28-3.14,3.71,3.71,0,0,0-1.28-3.08A6,6,0,0,0,17.47,38.15Z" transform="translate(-4.11 -19.78)"/><path class="cls-1" d="M20.2,31.75a3,3,0,0,0,1-2.5,3,3,0,0,0-1-2.49,4.66,4.66,0,0,0-3-.86H12.53v6.7h4.64A4.72,4.72,0,0,0,20.2,31.75Z" transform="translate(-4.11 -19.78)"/><path class="cls-1" d="M131,25.69a7.1,7.1,0,0,0-6,2.75q-2.13,2.76-2.13,7.76T125,43.93a7.85,7.85,0,0,0,12,0q2.11-2.74,2.12-7.73T137,28.44A7.14,7.14,0,0,0,131,25.69Z" transform="translate(-4.11 -19.78)"/><path class="cls-2" d="M25.29,35.05a6.49,6.49,0,0,0,3.24-2.4,6.78,6.78,0,0,0,1.11-3.93c0-2.93-1-5-3.05-6.38s-5.32-2-9.85-2H4.11V52h14q6.51,0,9.71-2.25A7.78,7.78,0,0,0,31,42.92a8.38,8.38,0,0,0-1.48-5.05A7.5,7.5,0,0,0,25.29,35.05ZM12.53,25.9h4.64a4.66,4.66,0,0,1,3,.86,3,3,0,0,1,1,2.49,3,3,0,0,1-1,2.5,4.72,4.72,0,0,1-3,.85H12.53Zm8.76,19.5a6,6,0,0,1-3.82,1H12.53V38.15h4.94a6,6,0,0,1,3.82,1,3.71,3.71,0,0,1,1.28,3.08A3.81,3.81,0,0,1,21.29,45.4Z" transform="translate(-4.11 -19.78)"/><polygon class="cls-2" points="42.53 18.8 55.97 18.8 55.97 12.63 42.53 12.63 42.53 12.63 34.1 12.63 34.1 32.21 57.3 32.21 57.3 26.05 42.53 26.05 42.53 18.8"/><rect class="cls-2" x="64.69" y="0.57" width="8.43" height="31.64"/><polygon class="cls-3" points="110.09 0.23 100.86 0.23 96.8 6.38 101.07 13.5 110.09 0.23"/><polygon class="cls-2" points="93.42 11.85 85.99 0.57 76.78 0.57 89.22 18.88 89.22 32.21 97.65 32.21 97.65 18.88 97.67 18.85 93.45 11.81 93.42 11.85"/><path class="cls-2" d="M143.31,24.14q-4.45-4.37-12.33-4.36t-12.32,4.36q-4.47,4.37-4.47,12.06t4.47,12q4.47,4.36,12.32,4.36t12.33-4.36q4.45-4.37,4.46-12T143.31,24.14ZM137,43.93a7.85,7.85,0,0,1-12,0q-2.13-2.74-2.13-7.73T125,28.44a7.87,7.87,0,0,1,12,0q2.11,2.76,2.12,7.76T137,43.93Z" transform="translate(-4.11 -19.78)"/><polygon class="cls-3" points="42.92 7.21 42.92 7.22 56.9 7.22 56.9 0.57 34.1 0.57 34.1 7.21 34.15 7.21 42.92 7.21"/></svg>
