<svg width="128" height="128" viewBox="0 0 128 128" fill="none" xmlns="http://www.w3.org/2000/svg">
<g clip-path="url(#clip0_5271_37530)">
<path d="M30 49L21 38.5L41.5 36.5H98.5L110.5 42L116 52V65.5C99 66 64.7 66.9 63.5 66.5C62.3 66.1 54.3333 65.6667 50.5 65.5L38 59.5L30 49Z" fill="#FFE700" stroke="black"/>
<path d="M124.131 97.75H74.6199V88.3757H90.4549C101.759 88.3757 111.2 80.2557 113.256 69.5427C117.309 69.244 120.525 65.837 120.525 61.7192V56.977C120.525 43.7948 109.801 33.0703 96.6187 33.0703C96.6187 33.0703 19.8862 33.1638 11.9989 33.1875C11.4927 33.189 10.9879 33.2105 10.4862 33.2783C9.03169 33.4753 7.69319 33.9227 6.48569 34.62C-1.26906 39.0972 -2.04106 51.788 4.72794 63.512C7.13469 67.681 10.3019 71.3005 13.7497 73.8545C16.1604 82.4443 22.0779 88.3757 29.1677 88.3757H46.0179V113.473C46.0179 121.324 52.4389 127.984 60.2894 128C65.8272 128.011 70.6399 124.857 73.0247 120.25H124.13C126.201 120.25 127.88 118.571 127.88 116.5V101.5C127.881 99.429 126.202 97.75 124.131 97.75ZM96.6187 40.5703C105.665 40.5703 113.025 47.9303 113.025 56.977V61.7192C113.025 61.9087 112.871 62.0645 112.681 62.066C112.492 62.0675 60.5882 62.5165 60.4922 62.5165C49.6677 62.5165 39.3792 57.21 32.9257 48.2822C31.1407 45.813 28.8752 43.065 26.1844 40.5703H96.6187ZM12.7279 62.1097C12.1969 61.3597 11.6929 60.5758 11.2232 59.762C8.86894 55.684 7.55344 51.186 7.61444 47.4207C7.66444 44.3465 8.61969 42.0482 10.2354 41.1152C10.8222 40.7767 11.5457 40.6722 12.1989 40.6647C15.1897 41.5087 17.9467 43.2823 20.3704 45.408C16.2149 49.0155 13.3724 55.1057 12.7279 62.1097ZM29.1677 80.8757C24.3307 80.8757 20.0879 73.5305 20.0879 65.157C20.0879 58.3532 22.6129 53.2425 25.5014 50.8923C25.9789 51.498 26.4287 52.096 26.8477 52.6758C29.9712 56.9968 33.8372 60.6183 38.1897 63.4178C38.2282 63.994 38.2477 64.575 38.2477 65.157C38.2474 73.5307 34.0047 80.8757 29.1677 80.8757ZM67.1199 113.699C67.1199 117.449 64.0689 120.5 60.3189 120.5C56.5689 120.5 53.5179 117.449 53.5179 113.699V88.3757H67.1199V113.699ZM41.4704 80.8757C43.8339 77.2392 45.3642 72.514 45.6839 67.232C50.3652 69.0463 55.3779 70.0165 60.4927 70.0163C60.6092 70.0163 105.521 69.6283 105.521 69.6283C103.59 76.1235 97.5692 80.8757 90.4552 80.8757H41.4704ZM120.381 112.75H74.6199V105.25H120.38V112.75H120.381Z" fill="black"/>
<path d="M42.4802 13.901C52.6504 5.38525 67.9884 5.38525 78.1584 13.901C78.8607 14.489 79.7147 14.776 80.5639 14.776C81.6354 14.776 82.6994 14.319 83.4409 13.4333C84.7704 11.8453 84.5612 9.48025 82.9732 8.15075C76.6964 2.89475 68.6512 0 60.3192 0C51.9872 0 43.9419 2.89475 37.6649 8.15075C36.0769 9.48025 35.8676 11.8455 37.1971 13.4333C38.5271 15.0213 40.8924 15.2307 42.4802 13.901Z" fill="black"/>
<path d="M49.0252 18.3893C47.3015 19.5373 46.8347 21.8653 47.9827 23.589C48.7052 24.6738 49.895 25.2608 51.1075 25.2608C51.8215 25.2608 52.5437 25.0573 53.1827 24.6315C57.4515 21.7888 63.1872 21.789 67.4557 24.6315C69.1792 25.779 71.5075 25.3128 72.6555 23.589C73.8035 21.8653 73.3367 19.537 71.613 18.3893C64.8577 13.8908 55.7807 13.8905 49.0252 18.3893Z" fill="black"/>
<path d="M60.3193 112.872C62.3904 112.872 64.0693 111.193 64.0693 109.122C64.0693 107.051 62.3904 105.372 60.3193 105.372C58.2483 105.372 56.5693 107.051 56.5693 109.122C56.5693 111.193 58.2483 112.872 60.3193 112.872Z" fill="black"/>
</g>
<defs>
<clipPath id="clip0_5271_37530">
<rect width="128" height="128" fill="white"/>
</clipPath>
</defs>
</svg>
