<svg width="128" height="128" viewBox="0 0 128 128" fill="none" xmlns="http://www.w3.org/2000/svg">
<path d="M15 72.5L26 124H66L76 72.5H15Z" fill="#ffc72d"/>
<path d="M4.57032 43.459C6.47182 44.094 9.82132 45.5077 13.0111 48.6975C16.2008 51.887 17.6146 55.2365 18.2496 57.1382C18.7068 58.5272 20.0368 59.7107 21.8111 59.7115C23.5853 59.7107 24.9153 58.5272 25.3726 57.1382C26.0076 55.2367 27.4213 51.8872 30.6111 48.6975C33.8008 45.5077 37.1506 44.094 39.0518 43.459C40.4408 43.0017 41.6243 41.6717 41.6251 39.8975C41.6243 38.1232 40.4408 36.7932 39.0518 36.336C37.1503 35.701 33.8008 34.2872 30.6111 31.0975C27.4213 27.9077 26.0076 24.5585 25.3726 22.6567C24.9153 21.2677 23.5853 20.0842 21.8111 20.0835C20.0368 20.0842 18.7071 21.2677 18.2496 22.6567C17.6146 24.5582 16.2008 27.9077 13.0111 31.0975C9.82132 34.2872 6.47157 35.701 4.57032 36.336C3.18132 36.7932 1.99782 38.1232 1.99707 39.8975C1.99782 41.6717 3.18132 43.0015 4.57032 43.459ZM18.3146 36.4007C19.6106 35.1047 20.7818 33.6875 21.8111 32.1775C22.8403 33.6877 24.0118 35.1047 25.3078 36.401C26.6038 37.697 28.0213 38.8685 29.5311 39.8977C28.0213 40.927 26.6038 42.0985 25.3078 43.3942C24.0116 44.6902 22.8403 46.1075 21.8111 47.6177C20.7818 46.1077 19.6103 44.6905 18.3143 43.3942C17.0183 42.0982 15.6008 40.9267 14.0911 39.8977C15.6011 38.8682 17.0183 37.6967 18.3146 36.4007Z" fill="black"/>
<path d="M109.935 76.6773V3.75C109.935 1.679 108.256 0 106.185 0C104.114 0 102.435 1.679 102.435 3.75V76.6773C93.2958 78.4355 86.3686 86.4885 86.3686 96.1332C86.3686 105.321 82.9758 112.18 76.2841 116.521C74.4111 117.736 72.5166 118.592 70.8543 119.192L79.5361 75.7835H82.0851C84.1561 75.7835 85.8351 74.1045 85.8351 72.0335C85.8351 69.9625 84.1561 68.2835 82.0851 68.2835H76.4621H15.4088H9.78531C7.7143 68.2835 6.0353 69.9625 6.0353 72.0335C6.0353 74.1045 7.7143 75.7835 9.78531 75.7835H12.3346L14.4176 86.1982L5.95705 94.6585C3.4173 97.1983 2.01855 100.575 2.01855 104.169C2.01855 109.743 5.34606 114.723 10.4953 116.855C12.0243 117.489 15.9311 118.779 20.5826 117.026L22.1746 124.985C22.5253 126.738 24.0643 128 25.8518 128H66.0186H94.1353C122.397 128 126.002 106.708 126.002 96.1332C126.002 86.4885 119.075 78.4355 109.935 76.6773ZM13.3653 109.926C11.0286 108.959 9.51855 106.699 9.51855 104.166C9.51855 102.578 10.1373 101.085 11.2606 99.9617L16.1851 95.0372L19.0668 109.447C17.3806 110.51 15.2646 110.713 13.3653 109.926ZM62.9443 120.5H28.9261L27.2448 112.094L48.5868 90.7517C50.0513 89.2872 50.0513 86.913 48.5868 85.4485C47.1226 83.984 44.7481 83.984 43.2836 85.4485L25.4771 103.255L19.9831 75.7832H71.8878L62.9443 120.5ZM94.1353 120.5H83.4798C88.7871 115.999 93.8688 108.468 93.8688 96.1332C93.8688 89.3417 99.3941 83.8165 106.186 83.8165C112.977 83.8165 118.502 89.3417 118.502 96.1332C118.502 120.34 99.5548 120.5 94.1353 120.5Z" fill="black"/>
<path d="M62.2686 39.9C62.2686 41.971 63.9476 43.65 66.0186 43.65H70.3021V47.9332C70.3021 50.0042 71.9811 51.6832 74.0521 51.6832C76.1231 51.6832 77.8021 50.0042 77.8021 47.9332V43.65H82.0853C84.1563 43.65 85.8353 41.971 85.8353 39.9C85.8353 37.8289 84.1563 36.15 82.0853 36.15H77.8021V31.8667C77.8021 29.7957 76.1231 28.1167 74.0521 28.1167C71.9811 28.1167 70.3021 29.7957 70.3021 31.8667V36.15H66.0186C63.9476 36.15 62.2686 37.8289 62.2686 39.9Z" fill="black"/>
<path d="M45.9355 15.5332H50.2188V19.8165C50.2188 21.8875 51.8978 23.5665 53.9688 23.5665C56.0398 23.5665 57.7188 21.8875 57.7188 19.8165V15.5332H62.0023C64.0733 15.5332 65.7523 13.8542 65.7523 11.7832C65.7523 9.71225 64.0733 8.03325 62.0023 8.03325H57.7188V3.75C57.7188 1.679 56.0398 0 53.9688 0C51.8978 0 50.2188 1.679 50.2188 3.75V8.03325H45.9355C43.8645 8.03325 42.1855 9.71225 42.1855 11.7832C42.1855 13.8542 43.8645 15.5332 45.9355 15.5332Z" fill="black"/>
</svg>
