<svg width="128" height="128" viewBox="0 0 128 128" fill="none" xmlns="http://www.w3.org/2000/svg">
<g clip-path="url(#clip0_5271_37788)">
<rect x="5" y="4" width="43" height="51" rx="5" fill="#ffc72d"/>
<path d="M26.25 15H15V45H22.5V37.5H26.25C32.4532 37.5 37.5 32.4532 37.5 26.25C37.5 20.0468 32.4532 15 26.25 15ZM26.25 30H22.5V22.5H26.25C28.3177 22.5 30 24.1823 30 26.25C30 28.3177 28.3177 30 26.25 30Z" fill="black"/>
<path d="M128 113V94.25C128 89.0212 124.414 84.6145 119.573 83.359L114.517 68.1923C112.983 63.5913 108.694 60.5 103.844 60.5H62.1558C57.306 60.5 53.0168 63.5912 51.483 68.1925L46.4275 83.359C41.5858 84.6145 38 89.0212 38 94.25V113H45.5V120.5H30V60H41.25C47.4532 60 52.5 54.9532 52.5 48.75V11.25C52.5 5.04675 47.4532 0 41.25 0H11.25C5.04675 0 0 5.04675 0 11.25V48.75C0 54.9532 5.04675 60 11.25 60H22.5V120.5H0V128H128V120.5H120.5V113H128ZM7.5 48.75V11.25C7.5 9.18225 9.18225 7.5 11.25 7.5H41.25C43.3177 7.5 45 9.18225 45 11.25V48.75C45 50.8177 43.3177 52.5 41.25 52.5H11.25C9.18225 52.5 7.5 50.8177 7.5 48.75ZM62.1558 68H103.844C105.461 68 106.891 69.0305 107.402 70.564L111.547 83H54.453L58.5983 70.5642C59.1095 69.0305 60.539 68 62.1558 68ZM45.5 94.25C45.5 92.1823 47.1823 90.5 49.25 90.5H116.75C118.818 90.5 120.5 92.1823 120.5 94.25V105.5H45.5V94.25ZM98 113V120.5H68V113H98ZM53 113H60.5V120.5H53V113ZM113 120.5H105.5V113H113V120.5Z" fill="black"/>
</g>
<defs>
<clipPath id="clip0_5271_37788">
<rect width="128" height="128" fill="white"/>
</clipPath>
</defs>
</svg>
