<svg width="128" height="128" viewBox="0 0 128 128" fill="none" xmlns="http://www.w3.org/2000/svg">
<rect x="19" y="59" width="41" height="29" fill="#ffc72d"/>
<rect x="31" y="5" width="18" height="20" fill="#ffc72d"/>
<rect x="65" y="31" width="39" height="14" fill="#ffc72d"/>
<path d="M33.665 70.0024H46.2103V77.5024H33.665V70.0024Z" fill="black"/>
<path d="M108.314 36.9287L104.806 27.0977H64.5225C62.1415 24.047 58.4335 22.0798 54.2728 22.0798H53.5985V13.2708H62.931L66.8233 18.3307L72.768 13.758L66.624 5.77075H53.5985V0H26.2768V22.0795H25.6025C18.4343 22.0795 12.6025 27.9112 12.6025 35.0795V128H104.707L106.792 122.755C117.716 95.2672 118.257 64.7865 108.314 36.9287ZM67.2725 34.5978H99.5185L101.25 39.4497C101.534 40.2435 101.808 41.0395 102.073 41.8377H67.2725V35.0798V34.5978ZM33.7768 7.5H46.0983V22.0795H33.7768V7.5ZM20.1025 35.0795C20.1025 32.0467 22.5698 29.5795 25.6025 29.5795H54.2728C57.3055 29.5795 59.7728 32.0467 59.7728 35.0795V53.6935H20.1025V35.0795ZM67.2725 70.979H91.3865V84.555H67.2725V70.979ZM59.7725 86.3112H20.1025V61.1935H59.7728L59.7725 86.3112ZM20.1025 120.5V93.8112H59.7728V120.5H20.1025ZM99.8218 119.985L99.617 120.5H67.2725V92.055H98.8865V63.479H67.2725V49.3377H104.283C110.302 72.6827 108.794 97.4098 99.8218 119.985Z" fill="black"/>
</svg>
