<svg width="36" height="35" viewBox="0 0 36 35" fill="none" xmlns="http://www.w3.org/2000/svg">
<path d="M30.4642 5.23913C27.172 1.98344 22.6212 0.216141 17.9733 0.216141C8.09684 0.216141 0.156919 7.93666 0.253778 17.3314C0.253778 20.308 1.12526 23.1916 2.57764 25.7961L0.0600586 34.6328L9.45249 32.3074C12.0668 33.7026 14.9717 34.3538 17.8765 34.3538C27.6562 34.3538 35.5961 26.6333 35.5961 17.2384C35.5961 12.6805 33.7564 8.40178 30.4642 5.23913ZM17.9733 31.4702C15.359 31.4702 12.7446 30.8191 10.5176 29.5168L9.93653 29.2378L4.3206 30.633L5.77298 25.331L5.38567 24.7729C1.12526 18.1686 3.15854 9.42494 10.1303 5.33218C17.1018 1.23934 26.107 3.19269 30.3674 9.89005C34.6278 16.5873 32.5945 25.238 25.6228 29.3308C23.3958 30.726 20.6845 31.4702 17.9733 31.4702ZM26.4943 21.1452L25.4292 20.68C25.4292 20.68 23.8798 20.029 22.9116 19.5638C22.8148 19.5638 22.7179 19.4709 22.6212 19.4709C22.3306 19.4709 22.137 19.5638 21.9433 19.6569C21.9433 19.6569 21.8465 19.7499 20.4909 21.2382C20.394 21.4243 20.2004 21.5172 20.0067 21.5172H19.9099C19.8131 21.5172 19.6194 21.4243 19.5226 21.3313L19.0385 21.1452C17.9733 20.68 17.0051 20.122 16.2305 19.3779C16.0368 19.1918 15.7463 19.0058 15.5526 18.8197C14.8748 18.1686 14.1971 17.4245 13.7129 16.5873L13.616 16.4013C13.5192 16.3083 13.5192 16.2152 13.4225 16.0292C13.4225 15.8432 13.4225 15.6572 13.5192 15.5641C13.5192 15.5641 13.9065 15.099 14.1971 14.82C14.3907 14.6339 14.4875 14.3549 14.6812 14.1689C14.8748 13.8898 14.9717 13.5177 14.8748 13.2387C14.778 12.7736 13.616 10.2621 13.3256 9.70396C13.1319 9.42494 12.9383 9.33189 12.6478 9.23884H12.3573C12.1637 9.23884 11.8732 9.23884 11.5826 9.23884C11.389 9.23884 11.1953 9.33189 11.0017 9.33189L10.9049 9.42493C10.7112 9.51798 10.5176 9.70396 10.3238 9.797C10.1302 9.98298 10.0334 10.1691 9.8398 10.355C9.16191 11.1922 8.7746 12.2155 8.7746 13.2387C8.7746 13.9828 8.96832 14.7269 9.25877 15.378L9.35563 15.6572C10.2271 17.4245 11.389 19.0058 12.9383 20.401L13.3256 20.7731C13.616 21.0522 13.9065 21.2382 14.1002 21.5172C16.1336 23.1916 18.4575 24.4009 21.0718 25.0519C21.3624 25.145 21.7497 25.145 22.0401 25.238C22.3306 25.238 22.7179 25.238 23.0085 25.238C23.4925 25.238 24.0735 25.0519 24.4609 24.866C24.7513 24.6799 24.945 24.6799 25.1386 24.4939L25.3323 24.3078C25.5259 24.1217 25.7196 24.0288 25.9132 23.8427C26.107 23.6567 26.3005 23.4706 26.3974 23.2846C26.5911 22.9126 26.6879 22.4475 26.7847 21.9823C26.7847 21.7964 26.7847 21.5172 26.7847 21.3313C26.7847 21.3313 26.6879 21.2382 26.4943 21.1452Z" fill="white"/>
</svg>
