<svg width="128" height="128" viewBox="0 0 128 128" fill="none" xmlns="http://www.w3.org/2000/svg">
<g clip-path="url(#clip0_5274_37999)">
<path d="M37 76C38.7685 74.6014 42.546 72.0892 46.8482 69.3336C57.0857 62.7765 70.0507 62.3834 80.8654 67.9372L92 73.6552" stroke="#ffc72d" stroke-width="13"/>
<path d="M9 47C15.2889 43.8108 35.2945 35.5833 50.9329 29.3258C59.5458 25.8794 69.176 26.0971 77.6685 29.8304L119 48" stroke="#ffc72d" stroke-width="20"/>
<circle cx="64" cy="101" r="8" fill="#ffc72d"/>
<path d="M42.9259 86.1312C41.9654 86.1312 41.0051 85.7649 40.2723 85.0318L27.2711 72.0307C25.8055 70.565 25.8055 68.1888 27.2711 66.7231C37.257 56.7369 50.8264 51.0098 64.4998 51.0098C78.3741 51.0098 91.4183 56.4127 101.229 66.2237C101.933 66.9275 102.328 67.882 102.328 68.8774C102.328 69.8729 101.933 70.8272 101.229 71.531L88.2277 84.5321C87.5241 85.236 86.5693 85.6315 85.574 85.6315C84.5787 85.6315 83.6239 85.236 82.9203 84.5321C78.0551 79.6669 71.4485 77.0515 64.3109 77.1654C57.1903 77.28 50.5381 80.0737 45.5801 85.0315C44.847 85.7646 43.8862 86.1309 42.9259 86.1312ZM35.3392 69.4836L43.0705 77.2149C49.0154 72.4433 56.3859 69.7861 64.1895 69.6605C72.086 69.5359 79.4863 72.0202 85.4209 76.7235L93.1574 68.9869C85.1512 62.2089 75.1092 58.5156 64.4995 58.5156C54.0122 58.5159 43.5757 62.4751 35.3392 69.4836Z" fill="black"/>
<path d="M111.246 59.9594C110.285 59.9594 109.325 59.5931 108.592 58.86C96.6812 46.9493 80.8448 40.3897 64 40.3895C47.1555 40.3895 31.3191 46.9491 19.4081 58.86C17.9426 60.3257 15.5662 60.3257 14.1005 58.86L1.0994 45.8589C0.395573 45.1551 0 44.2006 0 43.2053C0 42.2097 0.395573 41.2554 1.0994 40.5516C9.58708 32.0639 19.4899 25.4898 30.5329 21.0116C41.1929 16.6889 52.4528 14.4971 64.0003 14.4971C75.5472 14.4971 86.8071 16.6889 97.4676 21.0116C108.511 25.49 118.414 32.0642 126.901 40.5516C127.605 41.2554 128.001 42.2099 128.001 43.2053C128.001 44.2008 127.605 45.1551 126.901 45.8589L113.9 58.86C113.167 59.5929 112.206 59.9594 111.246 59.9594ZM64 32.8836C81.5931 32.8836 98.2034 39.2783 111.177 50.9676L118.88 43.2646C111.736 36.7357 103.6 31.598 94.6465 27.9673C84.8866 24.0098 74.5754 22.0032 64 22.0032C53.4241 22.0032 43.1132 24.0098 33.3535 27.9673C24.4007 31.5978 16.2648 36.7357 9.1202 43.2646L16.8232 50.9676C29.7966 39.2781 46.4069 32.8836 64 32.8836Z" fill="black"/>
<path d="M63.9995 113.503C60.6951 113.503 57.3906 112.245 54.8751 109.73C49.8437 104.698 49.8437 96.5117 54.8751 91.4804C59.9064 86.449 68.0931 86.4495 73.1242 91.4804C78.1556 96.5117 78.1556 104.698 73.1242 109.73C70.6084 112.245 67.304 113.503 63.9995 113.503ZM63.9995 95.2094C62.6174 95.2094 61.235 95.7356 60.1827 96.7879C58.0779 98.8927 58.0779 102.317 60.1827 104.422C62.2876 106.526 65.7119 106.526 67.8166 104.422C69.9214 102.317 69.9214 98.8927 67.8166 96.7879C66.7643 95.7356 65.3819 95.2094 63.9995 95.2094Z" fill="black"/>
</g>
<defs>
<clipPath id="clip0_5274_37999">
<rect width="128" height="128" fill="white"/>
</clipPath>
</defs>
</svg>
