<svg width="136" height="104" viewBox="0 0 136 104" fill="none" xmlns="http://www.w3.org/2000/svg">
<path d="M126.309 23.7579C126.969 23.098 127.497 22.3852 127.497 22.174C127.471 21.8573 127.55 21.8573 127.946 22.2268C128.21 22.4908 128.58 22.702 128.738 22.702C128.923 22.702 129.398 23.1244 129.794 23.6259C130.217 24.1275 130.639 24.5498 130.798 24.5498C130.956 24.5498 131.537 25.0514 132.118 25.6585C132.699 26.2921 133.068 26.688 132.91 26.5825C132.752 26.4769 132.171 27.2424 131.537 28.3775C130.903 29.4598 130.296 30.4101 130.138 30.4893C129.979 30.5685 129.874 31.0701 129.874 31.598C129.874 32.4163 129.689 32.7859 128.923 33.525C128.395 34.0266 127.735 34.9505 127.471 35.5841C127.207 36.1912 126.89 37.2471 126.811 37.9334C126.705 38.699 126.758 39.4381 126.943 39.7813C127.154 40.23 127.365 40.3356 127.708 40.2036C128.025 40.0717 128.104 40.0981 127.972 40.3356C127.84 40.494 127.233 40.6524 126.573 40.6524C125.913 40.6524 125.332 40.5468 125.253 40.3884C125.174 40.23 124.936 40.1772 124.725 40.2564C124.513 40.3356 124.329 40.2828 124.329 40.1245C124.329 39.9661 124.249 39.8869 124.144 39.9133C124.012 39.9397 123.668 39.8869 123.352 39.7813C123.008 39.6757 122.744 39.4909 122.744 39.3325C122.744 39.1741 122.639 39.1213 122.48 39.2005C122.322 39.2797 122.031 39.0421 121.82 38.6726C121.609 38.303 121.239 38.0126 121.028 38.0126C120.817 38.0126 120.262 37.5903 119.84 37.0887C119.417 36.5872 119.048 36.0064 119.048 35.848C119.048 35.6632 119.365 34.7921 119.761 33.921C120.13 33.0499 120.975 31.8092 121.609 31.1493C122.243 30.4629 122.744 29.6974 122.744 29.3806C122.744 28.9846 123.167 28.4039 123.933 27.7967C124.936 26.952 125.121 26.6353 125.121 25.8697C125.121 25.1306 125.332 24.7346 126.309 23.7579Z" fill="#676765"/>
<path d="M65.341 87.4291C66.4236 86.4523 67.7174 85.2908 68.1663 84.8157C68.8264 84.1821 69.1696 84.0238 69.6713 84.1293C70.041 84.2085 70.437 84.3405 70.5955 84.4461C70.7275 84.5253 70.9123 84.6045 70.9915 84.6045C71.0708 84.6045 71.5196 84.7893 71.9949 85.0005C72.4702 85.2116 72.8663 85.4756 72.8399 85.5812C72.8399 85.7132 72.9455 85.7396 73.1039 85.6604C73.2359 85.5812 73.4472 85.6868 73.5528 85.8452C73.6848 86.03 73.9753 86.294 74.2657 86.4523C74.5297 86.5843 74.8994 86.9275 75.0578 87.2179C75.2163 87.4818 75.6123 88.0362 75.9292 88.4058C76.2724 88.7753 76.4837 89.1713 76.4045 89.2769C76.3252 89.4089 76.3781 89.4881 76.5365 89.4881C76.6685 89.4881 76.7477 89.5937 76.6685 89.752C76.5893 89.884 76.6421 90.016 76.8005 90.016C76.9326 90.016 77.0646 90.2008 77.0646 90.412C77.0646 90.7288 76.9061 90.7552 76.3252 90.5968C75.9292 90.4912 75.0842 90.4384 74.4241 90.4912C73.3151 90.544 73.1039 90.676 71.0444 92.867C69.8297 94.1341 68.1399 96.0347 67.2685 97.0642C66.4236 98.1201 65.6578 98.9384 65.5786 98.8592C65.4994 98.78 65.2618 99.1232 65.0241 99.572C64.7337 100.153 64.6281 100.839 64.7337 101.631C64.7865 102.291 64.9449 103.056 65.0769 103.32C65.2882 103.769 65.2354 103.822 64.6545 103.611C64.2848 103.505 63.9151 103.268 63.8095 103.109C63.7039 102.951 63.5983 102.898 63.5983 103.004C63.5983 103.136 63.2814 103.056 62.859 102.845C62.4629 102.634 61.5387 101.895 60.773 101.209C60.0073 100.496 59.4 99.7568 59.3736 99.572C59.3736 99.4136 59.2415 99.2552 59.1095 99.2552C58.9511 99.2552 58.8983 99.1232 58.9775 98.9912C59.0567 98.8328 59.0039 98.7009 58.8719 98.6481C58.7399 98.6217 58.5814 98.4105 58.5286 98.1993C58.4758 97.9881 58.3702 97.7505 58.2646 97.6713C58.159 97.5921 58.0005 97.1434 57.9213 96.6682C57.8157 95.9819 57.9477 95.6387 58.6342 94.8468C59.1095 94.2924 60.3769 92.9726 61.4067 91.8639C62.4629 90.7815 63.3342 89.7256 63.3342 89.5409C63.3342 89.3825 64.232 88.4322 65.341 87.4291Z" fill="#676765"/>
<path d="M60.3505 0.369567C61.2747 0.369567 62.0932 0.263977 62.1989 0.184784C62.2781 0.079193 62.9646 0 63.7039 0C64.4432 0 65.1298 0.0527953 65.2618 0.131988C65.3674 0.211181 65.1562 0.712737 64.7865 1.24069C64.4168 1.79504 63.9152 2.77175 63.7039 3.43169C63.4135 4.27642 62.991 4.85717 62.1989 5.41152C61.3539 6.04506 61.0635 6.41463 61.0371 7.07457C60.9843 7.70812 60.6674 8.15688 59.7696 8.89601C59.1095 9.45036 58.555 10.0575 58.5814 10.2159C58.5814 10.4007 58.1062 11.1134 57.5253 11.7998C56.7595 12.7237 56.4163 13.3836 56.3107 14.2547C56.1786 15.1787 55.8882 15.7066 55.0432 16.5513C54.4623 17.1849 53.9079 17.5544 53.8286 17.4225C53.7494 17.2641 53.4326 17.3961 53.1157 17.6864C52.7725 17.9768 52.5084 18.1352 52.5084 18.0032C52.5348 17.8976 52.3764 17.9504 52.1916 18.1088C52.0067 18.2672 51.5843 18.3992 51.2674 18.4256C50.8625 18.4608 50.5105 18.232 50.2112 17.7392C49.8944 17.2377 49.8152 16.6305 49.8944 15.6538C49.9736 14.6243 50.1848 14.1227 50.7129 13.542C51.109 13.146 51.4522 12.6709 51.4522 12.5389C51.4522 12.4069 51.9803 11.747 52.6404 11.087C53.3534 10.3743 53.8286 9.66154 53.8286 9.29198C53.8286 8.92241 54.2511 8.36806 55.0168 7.70812C55.9674 6.94258 56.2314 6.54662 56.2314 5.93947C56.2314 5.30593 56.4691 4.98916 57.3932 4.27642C58.5286 3.45809 58.5814 3.3789 58.7135 0.395965L60.3505 0.369567Z" fill="#676765"/>
<path d="M131.062 29.1694C131.722 28.1399 132.329 27.1104 132.382 26.8728C132.461 26.6352 132.672 26.4768 132.857 26.5296C133.016 26.6088 133.491 27.1632 133.887 27.7703C134.283 28.4039 134.758 29.4862 134.943 30.1989C135.154 31.0436 135.207 32.0204 135.075 33.1027C134.97 33.9738 134.653 35.1881 134.389 35.7688C134.125 36.3496 133.57 37.2207 133.148 37.7222C132.725 38.1974 131.854 38.9101 131.194 39.2797C130.534 39.6757 129.504 40.1244 128.897 40.3092C128.025 40.5732 127.814 40.5732 127.972 40.3356C128.104 40.098 128.025 40.0716 127.708 40.2036C127.365 40.3356 127.154 40.23 126.943 39.7813C126.758 39.4381 126.705 38.699 126.811 37.9334C126.89 37.2471 127.207 36.1912 127.471 35.5576C127.735 34.9505 128.395 34.0266 128.923 33.525C129.61 32.8651 129.874 32.3899 129.874 31.8092C129.874 31.3076 130.296 30.3573 131.062 29.1694Z" fill="#676765"/>
<path d="M71.0444 92.8934C72.3118 91.5471 73.5 90.544 73.896 90.4648C74.2657 90.412 74.6354 90.3328 74.7674 90.3064C74.873 90.3064 75.4803 90.4384 76.1404 90.5968C77.2758 90.9399 77.3286 90.9927 77.4871 92.1278C77.5927 92.7878 77.5927 94.0813 77.5399 95.0316C77.4607 96.0875 77.1438 97.3018 76.7213 98.1993C76.3517 98.9912 75.4803 100.232 74.7674 100.945C74.0281 101.71 72.8135 102.581 71.7837 103.03C70.6483 103.584 69.4865 103.875 68.3511 103.954C67.4005 104.033 66.318 104.007 65.9219 103.901C65.3938 103.796 65.1034 103.505 64.9185 102.872C64.7601 102.423 64.6545 101.631 64.6545 101.156C64.6545 100.707 64.8393 99.9415 65.0505 99.5192C65.2618 99.0968 65.4994 98.78 65.5786 98.8592C65.6579 98.9384 66.4236 98.1201 67.2685 97.0642C68.1399 96.0347 69.8298 94.134 71.0444 92.8934Z" fill="#676765"/>
<path d="M55.1224 0.923921C55.7826 0.871125 56.3634 0.765535 56.4163 0.686342C56.4691 0.607149 56.9708 0.580751 58.555 0.633546V2.03262C58.5814 3.3789 58.555 3.4581 57.3932 4.27642C56.4691 4.98916 56.2314 5.30593 56.2314 5.93948C56.2314 6.54662 55.9674 6.94259 55.0168 7.70812C54.2511 8.36806 53.8286 8.92241 53.8286 9.29198C53.8286 9.66154 53.3533 10.3743 52.6404 11.087C51.9803 11.747 51.4522 12.4069 51.4522 12.5389C51.4522 12.6709 51.109 13.146 50.7129 13.542C50.1848 14.1227 49.9736 14.6243 49.8944 15.6538C49.8151 16.6305 49.8944 17.2377 50.2112 17.7392C50.4488 18.1616 50.6337 18.5312 50.5809 18.584C50.5545 18.6367 49.6303 18.8743 48.5477 19.1383C47.4651 19.4023 46.3297 19.6399 46.0393 19.6663C45.7488 19.719 45.4848 19.7718 45.432 19.7718C45.4056 19.7982 45.3 19.8246 45.1679 19.8774C45.0623 19.9038 44.8247 20.0358 44.6399 20.1414C44.4814 20.247 44.2174 20.2734 44.059 20.1942C43.9005 20.115 43.7949 20.1414 43.7949 20.247C43.7949 20.379 43.1084 20.6694 42.2899 20.9597C41.4449 21.2237 40.5736 21.4877 40.3623 21.5405C40.1511 21.5669 39.9399 21.6197 39.8871 21.6197C39.8606 21.6461 39.755 21.6461 39.623 21.6197C39.5174 21.6197 39.3854 21.7253 39.3062 21.8573C39.2269 22.0156 38.9365 22.174 38.646 22.2268C38.3556 22.2532 38.0651 22.3852 37.9859 22.4908C37.9067 22.57 37.5635 22.7284 37.1938 22.834C36.6921 22.966 36.3753 22.834 35.8736 22.306C35.3719 21.7781 35.2135 21.3293 35.2399 20.511C35.2399 19.8246 35.5039 18.9271 35.9528 18.1352C36.3489 17.4489 36.7713 16.8945 36.9298 16.8945C37.0882 16.8945 37.1938 16.6569 37.1938 16.3665C37.1938 16.0498 37.6955 15.4162 38.382 14.8355C39.0421 14.3075 39.5702 13.674 39.5702 13.4628C39.5438 13.2516 40.0719 12.6445 40.732 12.1429C41.6562 11.4302 41.9202 11.0342 41.9466 10.4271C41.9466 9.79353 42.1842 9.47676 43.1348 8.84322C44.191 8.13048 44.323 7.9457 44.323 7.04818C44.323 6.17705 44.455 5.99227 45.5112 5.33233C46.5674 4.69879 46.6994 4.514 46.6994 3.69567C46.673 3.19412 46.8578 2.58697 47.0955 2.37579C47.3067 2.16461 47.5972 2.05902 47.7028 2.16461C47.8084 2.2966 48.046 2.2438 48.2045 2.11181C48.3893 1.95343 48.7326 1.90063 48.9438 1.97983C49.155 2.05902 49.3927 1.97983 49.4719 1.84784C49.5511 1.71585 49.8679 1.58386 50.1848 1.58386C50.5281 1.58386 51.0826 1.55746 51.4522 1.50467C51.8219 1.47827 52.2708 1.37268 52.4292 1.24069C52.614 1.1351 53.0365 1.05591 53.3533 1.05591C53.6966 1.05591 54.4887 1.00311 55.1224 0.923921Z" fill="#676765"/>
<path d="M103.68 9.05443C103.654 8.13051 103.733 7.65536 103.971 7.57616C104.156 7.52337 104.631 7.60256 105.027 7.76095C105.397 7.91933 105.766 8.13051 105.845 8.2625C105.925 8.39449 106.11 8.50008 106.242 8.50008C106.4 8.50008 106.453 8.63207 106.374 8.79046C106.321 8.97524 106.242 9.89916 106.11 12.6709H104.921C104.261 12.6709 103.733 12.8029 103.733 12.9349C103.733 13.0669 104.261 13.4628 106.083 14.3868L104.895 15.3635C104.235 15.9442 103.733 16.6042 103.733 16.8945C103.733 17.1849 103.443 17.7393 103.073 18.1352C102.571 18.6896 102.254 18.8216 101.885 18.6632C101.462 18.5048 101.357 18.584 101.357 19.0591C101.383 19.4287 100.908 20.1678 100.248 20.8542C99.3764 21.7781 99.1123 21.9365 99.0595 21.5669C98.9803 21.1446 98.9275 21.1446 98.0561 21.5669C97.528 21.8309 97.132 22.1213 97.132 22.2269C97.132 22.3588 96.9471 22.438 96.7359 22.438C96.5247 22.438 96.3398 22.3325 96.3398 22.1741C96.3398 22.0157 96.2606 21.9629 96.155 22.0157C96.023 22.0685 95.5477 21.9629 95.0988 21.7517C94.6236 21.5405 94.1483 21.3821 94.0427 21.4085C93.9106 21.4085 93.7522 21.2765 93.6466 21.0654C93.541 20.8806 93.4353 20.4054 93.4353 19.9831C93.4353 19.5871 93.673 18.584 93.9634 17.7393C94.3067 16.8153 94.8876 15.8386 95.5477 15.1787C96.1286 14.5715 96.6039 13.8588 96.6039 13.5156C96.6039 13.1461 97.0528 12.5389 97.8713 11.8526C98.5578 11.2718 99.1387 10.9023 99.1915 11.0607C99.2179 11.219 99.5348 11.351 99.9044 11.351C100.274 11.351 100.565 11.483 100.565 11.615C100.565 11.747 100.749 11.8262 100.961 11.747C101.172 11.6678 101.357 11.747 101.357 11.879C101.357 12.011 101.515 12.143 101.7 12.143C101.858 12.143 102.413 11.747 102.888 11.2718C103.654 10.5063 103.733 10.2951 103.68 9.05443Z" fill="#676765"/>
<path d="M69.1696 2.03262C69.7769 1.58386 70.3842 0.897517 70.5163 0.554348C70.7803 -0.0264006 70.8859 -0.0527982 72.1533 0.105588C72.8927 0.211178 74.2129 0.343167 75.0842 0.395962C75.9556 0.448757 77.1966 0.554348 77.8567 0.633541C78.5168 0.712734 79.3089 0.765529 79.6522 0.791927C80.1539 0.791927 80.2067 0.87112 79.9955 1.37268C79.837 1.84783 79.5466 2.00622 77.5927 2.11181V6.07146H75.2163V7.70811C75.2163 9.29197 75.1898 9.42396 74.1601 10.4271C73.5528 11.0078 72.8398 11.9581 72.5494 12.5389C72.1269 13.3572 72.0213 13.9908 72.1797 16.8945L67.2421 16.8417C64.4168 16.7889 62.1724 16.6569 62.014 16.4985C61.8292 16.3401 61.75 15.5482 61.8028 14.4659C61.882 12.9612 61.9876 12.5917 62.5949 11.9581C62.991 11.5622 63.3342 11.087 63.3078 10.955C63.3078 10.823 63.8623 10.1895 64.5224 9.55595C65.3674 8.76402 65.7106 8.23606 65.7106 7.70811C65.737 7.18016 66.0275 6.7578 66.8988 6.07146C67.9814 5.22673 68.087 5.04195 68.087 4.01244C68.087 3.03573 68.1927 2.79815 69.1696 2.03262Z" fill="#676765"/>
<path d="M91.7983 5.54351C91.7631 4.558 91.8687 3.95965 92.1151 3.74847C92.3264 3.56369 92.6432 3.4317 92.8281 3.4317C93.0129 3.4317 93.2241 3.53729 93.3033 3.69568C93.3826 3.82767 93.541 3.90686 93.6994 3.82767C93.8578 3.74847 94.2803 3.82767 94.6764 4.01245C95.0988 4.17084 95.4949 4.32922 95.6005 4.32922C95.6797 4.35562 95.8646 4.43481 95.9966 4.5404C96.1022 4.64599 96.3135 4.67239 96.4719 4.5932C96.6303 4.5404 96.6831 4.88357 96.6039 5.54351C96.4983 6.28265 96.1286 6.99538 95.3629 7.9193C94.5708 8.84322 94.2275 9.47676 94.2275 10.0311C94.2275 10.6383 93.937 11.087 93.0393 11.9317C92.3792 12.5653 91.8511 13.2516 91.8511 13.4628C91.8775 13.674 91.6663 14.0436 91.4286 14.2547C91.1646 14.4659 90.6365 15.1259 90.214 15.7066C89.6067 16.5513 89.4483 17.0265 89.4747 18.1352C89.4747 18.9007 89.3691 19.5871 89.2106 19.6663C89.0522 19.7455 88.6297 19.6663 88.2073 19.4815C87.8112 19.3231 87.3359 19.2175 87.1511 19.2175C86.9927 19.2439 86.7814 19.1647 86.7022 19.0063C86.623 18.8479 86.4118 18.8215 86.2269 18.9007C86.0685 18.9799 85.7253 18.8479 85.514 18.584C85.1972 18.2408 85.1708 17.8448 85.3028 16.7889C85.4348 15.9706 85.8045 15.0203 86.3062 14.3075C86.7286 13.7004 87.0983 13.1196 87.0983 12.9877C87.0719 12.8821 87.6264 12.3013 88.2865 11.6678C89.1842 10.823 89.4747 10.3743 89.4747 9.76714C89.4747 9.15999 89.7387 8.76403 90.6629 7.9721C91.7983 7.02178 91.8247 6.96899 91.7983 5.54351Z" fill="#676765"/>
<path d="M120.368 19.2175C120.368 18.6631 120.5 17.9768 120.685 17.6864C120.87 17.396 121.186 17.1585 121.398 17.1585C121.635 17.1321 122.111 17.4224 122.48 17.7392C122.85 18.0824 123.352 18.452 123.616 18.5575C123.853 18.6631 124.065 18.8479 124.065 19.0063C124.065 19.1647 124.249 19.2703 124.461 19.2703C124.672 19.2703 124.962 19.5079 125.121 19.7982C125.279 20.0886 125.49 20.2734 125.649 20.1942C125.807 20.115 126.151 20.3526 126.441 20.7222C126.731 21.0917 127.048 21.3821 127.18 21.3821C127.286 21.3557 127.55 21.5669 127.761 21.8045C127.999 22.0684 128.025 22.2004 127.84 22.0948C127.629 21.9892 127.497 22.042 127.497 22.2532C127.497 22.4116 126.969 23.0979 126.309 23.7579C125.332 24.7346 125.121 25.1306 125.121 25.8697C125.121 26.6352 124.936 26.952 123.933 27.7967C123.167 28.4039 122.744 28.9846 122.744 29.3806C122.744 29.6974 122.243 30.4629 121.583 31.1492C120.922 31.8356 120.13 33.1027 119.681 34.1322C119.259 35.1089 118.757 35.9008 118.599 35.9008C118.414 35.9008 117.992 35.5576 117.675 35.1089C117.331 34.6865 116.988 34.3961 116.883 34.4489C116.751 34.5281 116.486 34.2906 116.275 33.921C116.064 33.5514 115.774 33.3138 115.615 33.393C115.483 33.4722 115.193 33.2874 115.034 32.9971C114.849 32.7067 114.533 32.4691 114.374 32.4691C114.189 32.4691 113.925 32.2315 113.767 31.9412C113.608 31.6508 113.503 31.0964 113.503 30.7005C113.503 30.2781 113.872 29.3278 114.295 28.5887C114.744 27.8231 115.193 27.1368 115.351 27.0576C115.51 26.9784 115.615 26.7144 115.615 26.4768C115.615 26.2129 116.143 25.4737 116.803 24.8138C117.516 24.1011 117.992 23.3883 117.992 23.0451C117.992 22.6756 118.44 22.0156 119.18 21.3293C120.21 20.3526 120.394 20.0358 120.368 19.2175Z" fill="#676765"/>
<path d="M64.7865 84.3405C64.9977 84.4197 65.2354 84.3669 65.2882 84.2349C65.3674 84.1029 66.1859 84.0237 67.1101 84.0237C68.0606 84.0501 68.8264 84.1293 68.8528 84.2085C68.8528 84.2877 68.3775 84.7629 67.7702 85.2644C67.1629 85.766 65.9219 86.9011 64.9977 87.7722C64.0736 88.6433 63.3078 89.4616 63.3078 89.62C63.3078 89.7784 62.4629 90.7815 61.4067 91.8638C60.3769 92.9725 59.1095 94.2924 58.6606 94.8468C58.1854 95.3747 57.7629 95.8235 57.7365 95.8235C57.6837 95.8235 57.6573 94.9788 57.6573 93.9493C57.6573 92.9197 57.7365 92.0222 57.8685 91.9694C57.9741 91.9166 58.0005 91.7582 57.9213 91.5999C57.8421 91.4415 57.8685 91.1775 57.9741 91.0191C58.0797 90.8343 58.1854 90.6231 58.1854 90.544C58.1854 90.4648 58.3702 90.016 58.5814 89.5408C58.7927 89.0657 59.0567 88.6697 59.1887 88.6961C59.2944 88.6961 59.3208 88.6169 59.2415 88.5113C59.1887 88.3793 59.4264 88.0362 59.7696 87.7194C60.1393 87.3762 60.4297 87.0067 60.4297 86.8483C60.4297 86.6899 60.6146 86.5843 60.8258 86.5843C61.037 86.5843 61.3539 86.3467 61.4859 86.0564C61.6444 85.766 62.014 85.4492 62.3573 85.37C62.6741 85.2644 63.0174 85.0796 63.123 84.9477C63.2286 84.8157 63.5455 84.6837 63.8359 84.6573C64.1528 84.6309 64.3904 84.5253 64.3904 84.4197C64.3904 84.2877 64.5752 84.2613 64.7865 84.3405Z" fill="#676765"/>
<path d="M114.031 14.4659C114.48 13.8324 114.77 13.1724 114.691 13.014C114.612 12.8293 115.245 13.0404 116.064 13.4892C116.909 13.9644 118.467 14.9147 121.424 16.8945L120.896 17.5016C120.553 17.8712 120.368 18.452 120.368 19.1383C120.368 20.0094 120.183 20.379 119.365 21.1973C118.836 21.7253 118.308 22.174 118.203 22.174C118.071 22.174 117.992 21.9892 117.992 21.7781C117.992 21.5669 117.754 21.3821 117.463 21.3821C117.173 21.3821 116.645 21.4877 116.275 21.6461C115.774 21.8309 115.615 21.8309 115.615 21.5933C115.615 21.4085 115.8 21.0653 116.011 20.8541C116.328 20.511 116.249 20.379 115.351 19.7982C114.77 19.4287 114.295 19.0591 114.295 18.9535C114.295 18.8215 114.11 18.7423 113.899 18.7423C113.688 18.7423 113.503 18.6367 113.503 18.4784C113.503 18.32 113.318 18.2144 113.107 18.2144C112.895 18.2144 112.711 18.1088 112.711 17.9504C112.711 17.8184 112.816 17.6864 112.975 17.6864C113.133 17.6864 113.239 17.2113 113.239 16.6305C113.239 15.865 113.476 15.2578 114.031 14.4659Z" fill="#676765"/>
<path d="M111.311 26.2129C111.549 25.7905 111.998 25.2098 112.288 24.8666C112.579 24.5234 112.869 24.3914 112.895 24.5234C112.948 24.6818 113.16 24.8138 113.371 24.8138C113.582 24.8138 113.767 24.9194 113.767 25.0778C113.767 25.2362 113.952 25.3418 114.163 25.3418C114.374 25.3418 114.559 25.4473 114.559 25.6057C114.559 25.7641 114.744 25.8697 114.955 25.8697C115.166 25.8697 115.404 26.0545 115.483 26.2657C115.562 26.4768 115.325 27.0576 114.981 27.5328C114.638 27.9815 114.163 28.7998 113.899 29.3014C113.661 29.803 113.476 30.5949 113.529 31.0436C113.608 31.5716 113.529 31.8356 113.371 31.73C113.212 31.6508 112.499 31.1492 110.44 29.6974L110.651 28.3247C110.783 27.5592 111.074 26.6088 111.311 26.2129Z" fill="#676765"/>
<path d="M106.057 13.5156C106.03 12.9085 106.347 12.2221 107.139 11.087C107.747 10.2159 108.433 9.50317 108.644 9.50317C108.856 9.50317 109.806 9.95193 110.81 10.4799C111.787 11.0078 112.605 11.5622 112.658 11.6678C112.684 11.7734 112.843 11.8262 112.975 11.747C113.133 11.6678 113.239 11.747 113.239 11.879C113.239 12.011 113.318 12.0901 113.45 12.011C113.556 11.9582 113.899 12.1165 114.242 12.4069C114.559 12.6973 114.902 12.8557 114.981 12.7237C115.087 12.6181 115.008 12.8293 114.823 13.1988C114.638 13.5684 114.216 14.2548 113.872 14.7035C113.476 15.2315 113.239 15.9442 113.239 16.4986C113.239 17.2641 113.028 17.6337 112.051 18.5576C111.39 19.1647 110.836 19.8247 110.862 20.0094C110.862 20.1678 110.361 20.9598 109.727 21.7253C109.12 22.4644 108.38 23.5731 108.116 24.1539C107.852 24.7346 107.562 25.7905 107.456 26.5033C107.298 27.744 107.271 27.7967 106.849 27.3744C106.585 27.1368 106.321 26.9256 106.242 26.9256C106.162 26.9256 105.819 26.7672 105.449 26.6089C105.08 26.4241 104.789 26.1865 104.789 26.0809C104.789 25.9489 104.684 25.9225 104.525 26.0017C104.393 26.0809 104.261 26.0281 104.261 25.8697C104.261 25.7113 104.156 25.6585 103.997 25.7377C103.865 25.8169 103.733 25.7641 103.733 25.6057C103.733 25.4474 103.628 25.3946 103.469 25.4738C103.337 25.5529 103.205 25.5002 103.205 25.3418C103.205 25.1834 103.099 25.1306 102.941 25.2098C102.809 25.289 102.677 25.2362 102.677 25.0778C102.677 24.9194 102.598 24.8402 102.492 24.8666C102.36 24.893 102.017 24.8402 101.7 24.7346C101.145 24.5762 101.093 24.3915 101.119 22.9132C101.145 21.9893 101.225 20.9334 101.33 20.5374C101.41 20.1678 101.99 19.2967 102.624 18.6368C103.231 17.9768 103.733 17.1849 103.733 16.8945C103.733 16.6041 104.235 15.9442 104.921 15.3899C105.872 14.5451 106.083 14.2284 106.057 13.5156Z" fill="#676765"/>
<path d="M78.6489 2.11181C79.5202 2.11181 79.7578 2.00622 79.9955 1.42547C80.1539 1.02951 80.3916 0.844722 80.5764 0.950313C80.7612 1.0559 81.3157 1.18789 81.8174 1.21429C82.3191 1.26708 83.0056 1.31988 83.3224 1.31988C83.6657 1.31988 83.9826 1.42547 84.0618 1.58386C84.141 1.71584 84.2994 1.79504 84.4578 1.71584C84.5899 1.63665 84.7219 1.66305 84.7219 1.76864C84.7219 1.90063 84.1938 2.50777 83.5337 3.16772C82.5303 4.17083 82.3455 4.514 82.3455 5.33232C82.3455 6.22984 82.1607 6.52022 80.7348 7.8401C79.8371 8.68482 78.7809 9.58234 77.5927 10.2951V9.29197C77.6191 8.31526 77.6191 8.31526 77.1438 8.86961C76.8798 9.18638 76.3517 9.63514 75.9292 9.87272C75.4011 10.1895 75.2163 10.2159 75.2163 9.95191C75.2163 9.79353 74.6618 10.1631 72.7078 12.0109L73.9489 10.691C75.1635 9.39756 75.2163 9.31837 75.2163 6.07146H77.5927V2.11181H78.6489Z" fill="#676765"/>
<path d="M72.1005 15.0731C72.0741 14.1491 72.1798 13.1988 72.3646 12.8557C72.6814 12.3277 72.7342 12.4597 72.8399 14.0171C72.9455 15.3106 73.1303 15.9442 74.0281 16.8681L72.1798 16.7097L72.1005 15.0731Z" fill="#676765"/>
<path d="M95.4157 7.86645C96.3135 6.83694 96.6039 6.25619 96.6039 5.62265C96.6039 5.0947 96.7359 4.75153 96.9208 4.75153C97.1056 4.75153 98.7427 5.30588 103.865 7.18011L103.76 8.81676C103.68 10.1894 103.548 10.559 102.835 11.2981C102.386 11.7733 101.858 12.1429 101.7 12.1429C101.515 12.1429 101.357 12.0373 101.357 11.8789C101.357 11.7469 101.172 11.6677 100.961 11.7469C100.749 11.8261 100.565 11.7733 100.565 11.6149C100.565 11.4829 100.274 11.3509 99.9045 11.3509C99.5348 11.3509 99.218 11.219 99.1916 11.0606C99.1387 10.9022 98.5578 11.2717 97.8713 11.8525C97.0792 12.5388 96.6039 13.146 96.6039 13.5419C96.5775 13.8587 96.0758 14.6506 95.4685 15.3106C94.6764 16.1289 94.2011 16.9736 93.8578 18.0823C93.5938 18.9535 93.409 19.983 93.4618 20.3789C93.5146 20.7749 93.5146 21.1181 93.4354 21.1181C93.3562 21.1181 92.4056 20.8277 89.3427 19.7982L89.4747 18.1351C89.5627 17.044 89.7916 16.2345 90.1612 15.7066C90.4781 15.2578 90.9798 14.677 91.2966 14.3867C91.6135 14.0963 91.8511 13.6739 91.8511 13.4628C91.8247 13.2516 92.3792 12.5652 93.0393 11.9581C93.9371 11.087 94.2275 10.6382 94.2275 10.0311C94.2275 9.47671 94.5708 8.81676 95.4157 7.86645Z" fill="#676765"/>
<path d="M106.162 11.0078C106.136 10.1895 106.215 9.26557 106.374 8.9752C106.638 8.47364 106.664 8.47364 108.433 9.37117L106.242 12.4861L106.162 11.0078Z" fill="#676765"/>
<path d="M104.789 13.7268C104.208 13.4364 103.733 13.0668 103.733 12.9348C103.733 12.8029 104.261 12.6709 104.921 12.6709C106.057 12.6709 106.11 12.6973 106.11 13.4628C106.11 13.9116 106.057 14.2547 105.977 14.2547C105.898 14.2547 105.37 14.0172 104.789 13.7268Z" fill="#676765"/>
<path d="M100.248 20.8541C100.934 20.115 101.357 19.4551 101.33 19.0855C101.304 18.6367 101.383 18.5575 102.413 18.8743L101.885 19.4023C101.489 19.7982 101.304 20.4582 101.145 22.0156C101.04 23.1507 100.881 24.1275 100.749 24.1802C100.644 24.233 100.565 24.1802 100.565 24.0219C100.565 23.8635 100.485 23.7843 100.353 23.8107C100.248 23.8371 99.7196 23.7051 99.1651 23.4939C98.637 23.2827 98.1882 23.0188 98.1882 22.9132C98.1882 22.7812 98.109 22.7284 97.9769 22.7284C97.8713 22.7548 97.6337 22.7548 97.4488 22.7284C97.2904 22.7284 97.132 22.5436 97.132 22.3852C97.132 22.2004 97.5281 21.8309 98.0561 21.5933C98.9275 21.1445 98.9803 21.1445 99.0595 21.5933C99.1123 21.9364 99.3764 21.7781 100.248 20.8541Z" fill="#676765"/>
<path d="M38.7517 4.69879C38.8837 4.646 39.0949 4.5404 39.2005 4.43481C39.3062 4.30283 39.4382 4.22363 39.491 4.22363C39.5438 4.22363 39.5702 4.88357 39.5702 5.6755C39.5702 6.94259 39.5174 7.12737 39.0421 7.12737C38.7517 7.12737 38.2236 7.28576 37.8539 7.44415C37.2466 7.76092 37.1674 7.9193 37.1938 11.087H34.8174V13.0141C34.8438 14.7827 34.791 14.9411 34.1573 15.2579C33.7876 15.4162 33.2595 15.5746 32.9691 15.5746C32.4938 15.5746 32.441 15.7594 32.441 17.2377C32.441 18.6368 32.3354 18.9799 31.7809 19.5343C31.2 20.115 31.1208 20.4318 31.1208 21.9893C31.1208 23.3091 31.2528 23.9427 32.1506 25.2098L31.1736 25.7113C30.6455 26.0017 30.1174 26.2129 30.0118 26.1865C29.8798 26.1601 29.8006 26.2921 29.8006 26.4769C29.8006 26.6352 29.7477 26.7144 29.6685 26.6088C29.5893 26.4769 29.3253 26.5824 29.0876 26.7936C28.8236 27.0048 28.5067 27.216 28.3483 27.2424C28.2163 27.2688 27.8466 27.5064 27.5562 27.7703C27.2657 28.0079 26.9489 28.1663 26.8432 28.1135C26.7112 28.0343 26.5792 28.1663 26.5 28.3775C26.4208 28.5887 26.2624 28.7207 26.1039 28.6415C25.9719 28.5623 25.7871 28.6943 25.7079 28.9054C25.6286 29.1166 25.4702 29.2486 25.3118 29.1694C25.1798 29.0902 25.0477 29.143 25.0477 29.3014C25.0477 29.4598 24.8629 29.5654 24.6517 29.5654C24.4404 29.5654 24.2028 29.7502 24.1236 29.9613C24.0444 30.1725 23.8859 30.3045 23.7275 30.2253C23.5955 30.1461 23.4107 30.2781 23.3315 30.4893C23.2522 30.7005 23.0146 30.8853 22.8034 30.8853C22.5921 30.8853 22.3545 31.0964 22.2753 31.3604C22.1961 31.598 22.0376 31.73 21.932 31.6244C21.8264 31.4924 21.5888 31.6508 21.4303 31.9412C21.2455 32.2315 20.9022 32.4691 20.691 32.4691C20.4798 32.4691 20.2421 32.6539 20.1629 32.8651C20.0837 33.0763 19.9253 33.261 19.7668 33.261C19.6348 33.261 19.2652 33.5514 18.9747 33.921C18.6843 34.2906 18.2882 34.5809 18.1298 34.5809C17.9449 34.5809 17.4697 35.0033 17.0736 35.5049C16.6511 36.0064 16.1758 36.4288 16.0174 36.4288C15.8326 36.4288 15.2781 36.9039 14.8292 37.4847C14.3539 38.0654 13.8522 38.4878 13.6938 38.4086C13.5618 38.3294 13.4298 38.3822 13.4298 38.5406C13.4298 38.699 12.9809 39.0421 12.4528 39.3325C11.8983 39.5965 11.3702 39.7549 11.2382 39.6493C11.1326 39.5437 11.0534 39.6229 11.0534 39.8077C11.0534 40.0188 10.8157 40.0804 10.3404 39.9925C9.91797 39.9133 9.38988 39.6493 9.12584 39.3853C8.67696 38.9629 8.65056 38.9629 8.65056 39.4645C8.65056 39.9397 8.62415 39.9133 8.28089 39.3325C8.06966 38.9629 7.91123 38.0918 7.91123 37.3527C7.91123 36.1384 8.01685 35.8744 9.28427 34.3697C10.05 33.4722 10.7365 32.7331 10.8685 32.7331C10.9742 32.7331 11.0534 32.5483 11.0534 32.3371C11.0534 32.1259 11.5815 31.4924 12.2416 30.9645C12.8753 30.4101 13.4034 29.803 13.4298 29.6446C13.4298 29.4598 13.9579 28.8526 14.618 28.3247C15.2517 27.7703 15.859 27.1104 15.9382 26.8728C16.0174 26.6088 16.5455 26.0809 17.1264 25.6849C17.6809 25.2626 18.1562 24.7346 18.1826 24.497C18.1826 24.2331 18.7107 23.6259 19.3708 23.1771C20.0045 22.702 20.5326 22.1476 20.559 21.9893C20.559 21.8045 21.0871 21.2501 21.7472 20.8014C22.5129 20.2206 22.909 19.7191 22.9354 19.3495C22.9354 18.9447 23.3315 18.4608 24.1236 17.8976C25.0477 17.2113 25.3118 16.8681 25.3118 16.3138C25.3118 15.7066 25.523 15.469 26.4472 14.9675C27.3977 14.4659 27.5562 14.2547 27.6354 13.4628C27.6882 12.6709 27.8466 12.4597 28.8764 11.9581C30.0118 11.3774 30.0646 11.2982 30.0646 10.1631C30.0646 9.02801 30.1174 8.94881 31.2 8.36806C31.8601 8.02489 32.3354 7.57613 32.3882 7.25936C32.4146 6.91619 32.8107 6.59942 33.5764 6.33544C34.1837 6.12426 34.7382 5.96588 34.8174 5.99228C34.8966 6.01867 35.1079 5.88668 35.2927 5.7283C35.4775 5.54352 35.6359 5.51712 35.6095 5.6755C35.6095 5.83389 35.768 5.7547 36.0056 5.54352C36.2432 5.33233 36.4281 5.27954 36.4281 5.41153C36.4017 5.56991 36.5337 5.51712 36.6921 5.33233C36.8241 5.14755 37.273 4.93637 37.6691 4.88357C38.0652 4.83078 38.4084 4.77798 38.4612 4.77798C38.4876 4.75159 38.6196 4.72519 38.7517 4.69879L38.7517 4.69879Z" fill="#676765"/>
<path d="M64.7865 1.26709C65.1562 0.712737 65.3674 0.211181 65.2618 0.131988H65.2354C65.1298 0.0527953 66.318 0 67.8758 0C70.6747 0 70.7275 0 70.5163 0.554351C70.4107 0.871122 69.8298 1.53106 69.196 2.00622C68.1927 2.79815 68.0871 3.00933 68.0871 4.03884C68.0871 5.04195 67.9814 5.22674 66.8989 6.07146C66.0275 6.7578 65.7371 7.18016 65.7107 7.73451C65.7107 8.23607 65.3674 8.76402 64.5225 9.58235C63.8623 10.1895 63.3078 10.823 63.3078 10.955C63.3343 11.087 62.991 11.5622 62.5949 11.9581C61.9612 12.6181 61.882 12.8821 61.882 14.5979C61.882 16.4985 61.882 16.4985 62.6741 16.6569C63.255 16.7625 62.9118 16.8681 61.3539 17.0001C60.1921 17.1321 57.8157 17.4224 56.073 17.6864C54.3303 17.924 52.8517 18.0824 52.7725 18.0296C52.6932 17.9768 52.8781 17.7656 53.1685 17.5808C53.459 17.3697 53.7494 17.3169 53.8286 17.4488C53.9078 17.5808 54.4623 17.1849 55.0432 16.5513C55.8882 15.7066 56.1786 15.1786 56.3107 14.2547C56.4163 13.3836 56.7595 12.7237 57.5253 11.8261C58.1062 11.1134 58.5814 10.4007 58.5814 10.2423C58.555 10.0575 59.1095 9.45036 59.7696 8.92241C60.6674 8.15687 60.9843 7.70811 61.0107 7.07457C61.0635 6.41463 61.3539 6.04506 62.1989 5.41152C62.991 4.85717 63.4135 4.27642 63.7039 3.43169C63.9151 2.77175 64.4168 1.79504 64.7865 1.26709Z" fill="#676765"/>
<path d="M82.3455 5.33231C82.3719 4.54038 82.5831 4.11802 83.6129 3.00931C84.3522 2.16459 85.0123 1.68943 85.25 1.76862C85.4612 1.84782 85.9365 1.95341 86.3061 2.0062C86.6758 2.0854 87.1775 2.13819 87.4151 2.11179C87.6792 2.11179 87.9432 2.21738 88.0224 2.37577C88.1017 2.50776 88.2601 2.58695 88.4185 2.50776C88.5505 2.42857 88.6826 2.45496 88.6826 2.56055C88.6826 2.69254 88.3393 3.1941 87.9168 3.69565C87.3095 4.40839 87.1247 4.88355 87.0983 5.72827C87.0983 6.75778 86.9663 6.96896 85.9101 7.84009C85.0387 8.55282 84.6955 9.02798 84.7219 9.50314C84.7219 9.9255 84.405 10.5062 83.7977 11.087C83.2696 11.5886 82.4775 12.6709 82.0286 13.4628C81.3157 14.7299 81.2365 15.1258 81.3157 16.4457C81.4213 17.8712 81.3949 17.9768 80.8932 17.8184C80.6028 17.7392 79.9955 17.6072 79.573 17.5544C79.1505 17.528 78.2528 17.396 77.5927 17.2904C76.9326 17.2113 75.9556 17.1321 75.4011 17.1321C74.6618 17.1585 74.2393 16.9737 73.632 16.3665C72.9191 15.6538 72.8399 15.4162 72.8399 13.7796C72.8399 12.0373 72.8399 12.0109 74.0281 10.823C74.6882 10.1631 75.2163 9.79351 75.2163 9.9519C75.2163 10.2159 75.4011 10.1895 75.9292 9.87271C76.3517 9.63513 76.8797 9.18637 77.1438 8.86959C77.6191 8.31524 77.6191 8.31524 77.5927 10.2951L78.3584 9.81991C78.7809 9.58233 79.837 8.68481 80.7348 7.84009C82.1342 6.5202 82.3455 6.20343 82.3455 5.33231Z" fill="#676765"/>
<path d="M110.81 20.0094C110.783 19.8247 111.126 19.3231 111.602 18.8479C112.156 18.2936 112.631 18.056 112.948 18.1352C113.212 18.2144 113.45 18.3728 113.476 18.5048C113.476 18.6368 113.688 18.7424 113.899 18.7424C114.11 18.7424 114.269 18.8215 114.242 18.9535C114.216 19.0591 114.691 19.4287 115.298 19.7983C116.249 20.379 116.328 20.511 116.011 20.8542C115.8 21.0653 115.615 21.4085 115.615 21.5669C115.615 21.8309 115.774 21.8309 116.275 21.6461C116.645 21.4877 117.173 21.3821 117.463 21.3821C117.912 21.3821 117.992 21.5669 117.992 22.4908C117.992 23.4939 117.833 23.7843 116.724 24.8666C115.958 25.6321 115.298 26.0545 115.008 25.9753C114.77 25.9225 114.559 25.7641 114.559 25.6057C114.559 25.4474 114.374 25.3418 114.163 25.3418C113.952 25.3418 113.767 25.2362 113.767 25.0778C113.767 24.9194 113.582 24.8138 113.371 24.8138C113.16 24.8138 112.975 24.6554 112.975 24.4706C113.001 24.2595 112.869 24.2595 112.552 24.5498C112.315 24.761 111.813 25.3946 111.496 25.9225C111.153 26.4769 110.783 27.5328 110.651 28.2455C110.545 28.9846 110.387 29.5654 110.255 29.5654C110.149 29.5654 110.07 29.4598 110.07 29.3014C110.07 29.143 109.938 29.0902 109.806 29.1694C109.648 29.2486 109.489 29.1166 109.41 28.9055C109.331 28.6943 109.199 28.5623 109.067 28.6415C108.961 28.6943 108.618 28.5359 108.275 28.2455C107.958 27.9551 107.641 27.7968 107.562 27.9023C107.483 28.0343 107.43 27.612 107.43 26.9784C107.43 26.3713 107.694 25.2362 108.011 24.4706C108.328 23.7315 109.093 22.4644 109.727 21.6989C110.361 20.9598 110.836 20.1942 110.81 20.0094Z" fill="#676765"/>
<path d="M87.0983 5.8075C87.0983 5.04197 87.3359 4.43482 87.9696 3.5901H87.9432C88.4185 2.93015 88.8938 2.4022 88.9994 2.4022C89.1314 2.3758 89.2635 2.50779 89.3427 2.63978C89.4219 2.79817 89.5803 2.85096 89.7387 2.77177C89.8708 2.69258 90.1612 2.71897 90.3196 2.82456C90.5045 2.93015 91.0326 3.06214 91.455 3.08854C91.8775 3.14134 92.3 3.24693 92.3792 3.32612C92.4584 3.37891 92.3528 3.5901 92.168 3.77488C91.9831 3.95966 91.8511 4.7252 91.8247 5.54352C91.8247 6.9426 91.7719 7.04819 90.6629 7.9985C89.7387 8.76404 89.4747 9.16 89.4747 9.76715C89.4747 10.3743 89.1842 10.8231 88.2865 11.6942C87.6264 12.3013 87.0719 12.8821 87.0983 13.0141C87.0983 13.1196 86.7286 13.7004 86.3062 14.3339C85.6989 15.1523 85.4348 15.865 85.3028 17.1057C85.1972 18.0032 85.0387 18.7423 84.9067 18.7423C84.8011 18.7423 84.6691 18.6368 84.5899 18.4784C84.5107 18.32 84.273 18.2672 84.0618 18.3464C83.8505 18.4256 83.5073 18.3728 83.3225 18.2144C83.164 18.0824 82.9264 18.0296 82.7944 18.1616C82.6887 18.2672 82.2927 18.1616 81.9494 17.9504C81.3421 17.6073 81.2893 17.3697 81.2893 16.1026C81.2893 14.9939 81.5005 14.3339 82.0814 13.3308C82.5039 12.6181 83.2696 11.5886 83.7977 11.087C84.405 10.5063 84.7219 9.92553 84.7219 9.50317C84.6955 9.02801 85.0387 8.55286 85.9101 7.86652C86.9663 6.969 87.0983 6.73142 87.0983 5.8075Z" fill="#676765"/>
<path d="M44.9831 2.79816C45.564 2.71896 46.0921 2.58697 46.1449 2.50778C46.1977 2.42859 46.3562 2.37579 46.4882 2.37579C46.5938 2.37579 46.6994 2.87735 46.6994 3.48449C46.6994 4.5404 46.6202 4.67239 45.5112 5.33233C44.455 5.99227 44.323 6.17706 44.323 7.04818C44.323 7.9457 44.191 8.13048 43.1348 8.84322C42.1843 9.47676 41.9466 9.79353 41.9466 10.4271C41.9202 11.0342 41.6562 11.4302 40.732 12.1429C40.0719 12.6445 39.5438 13.2516 39.5702 13.4628C39.5702 13.674 39.0421 14.3075 38.382 14.8355C37.6955 15.4162 37.1938 16.0498 37.1938 16.3666C37.1938 16.6569 37.0882 16.8945 36.9298 16.8945C36.7713 16.8945 36.3489 17.4489 35.9528 18.1352C35.5039 18.9271 35.2399 19.8246 35.2399 20.511C35.2135 21.3821 35.3719 21.7781 36.0056 22.4644C36.4545 22.9396 36.6393 23.2299 36.4545 23.1507C36.2961 23.0452 36.1112 23.0452 36.0584 23.1507C36.032 23.2827 35.3983 23.6523 34.6854 23.9955C33.9461 24.3386 33.1539 24.5498 32.8899 24.4442C32.5906 24.3386 32.441 24.4178 32.441 24.6818C32.441 24.893 32.309 25.0778 32.177 25.0778C32.0185 25.0778 31.7281 24.7874 31.5168 24.4178C31.2792 24.0219 31.1208 23.0716 31.1208 21.9629C31.1208 20.4318 31.2 20.115 31.7809 19.5343C32.3354 18.9799 32.441 18.6367 32.441 17.2113C32.441 15.7594 32.4938 15.5746 32.9691 15.5746C33.2595 15.5746 33.7876 15.4162 34.1573 15.2578C34.791 14.9411 34.8438 14.7827 34.8174 11.087H37.1938V9.45036C37.1674 7.9193 37.2466 7.76091 37.8539 7.47054C38.2236 7.28576 38.7517 7.12737 39.0421 7.12737C39.491 7.12737 39.5702 6.94259 39.5702 5.88668C39.5438 5.17394 39.7022 4.46121 39.8871 4.30282C40.0719 4.11804 40.5208 3.90686 40.8904 3.85406C41.2601 3.80127 41.8938 3.64288 42.3427 3.4581C42.7916 3.29971 43.1876 3.22052 43.2668 3.29971C43.3461 3.3789 43.5045 3.32611 43.6629 3.16772C43.8213 3.03573 44.4022 2.87735 44.9831 2.79816Z" fill="#676765"/>
<path d="M22.8034 11.2718C24.5461 10.295 27.3449 8.92236 29.0084 8.18323C30.6719 7.47049 32.1241 6.86334 32.2298 6.86334C32.309 6.86334 32.3618 7.07452 32.3354 7.3385C32.309 7.57608 31.8073 8.05124 31.1736 8.39441C30.1174 8.94876 30.0646 9.02795 30.0646 10.163C30.0646 11.2981 30.0118 11.3773 28.8764 11.9581C27.8466 12.4596 27.6882 12.6708 27.6354 13.4628C27.5562 14.2547 27.3977 14.4659 26.4472 14.9674C25.523 15.469 25.3118 15.7066 25.3118 16.3137C25.3118 16.8681 25.0477 17.2112 24.1236 17.8976C23.3315 18.4607 22.9354 18.9447 22.9354 19.3494C22.909 19.719 22.5129 20.2206 21.7472 20.8013C21.0871 21.2501 20.559 21.8044 20.559 21.9892C20.5326 22.1476 20.0045 22.7019 19.3708 23.1771C18.7107 23.6259 18.1826 24.233 18.1826 24.497C18.1562 24.7346 17.6809 25.2625 17.1264 25.6849C16.5455 26.0808 16.0174 26.6088 15.9382 26.8728C15.859 27.1103 15.2517 27.7703 14.618 28.3246C13.9579 28.8526 13.4298 29.4597 13.4298 29.6445C13.4034 29.8029 12.8753 30.4101 12.2416 30.9644C11.5815 31.4924 11.0534 32.1259 11.0534 32.3371C11.0534 32.5483 10.9742 32.733 10.8685 32.733C10.7365 32.733 10.05 33.4722 9.28427 34.3697C8.01685 35.8744 7.91123 36.1383 7.91123 37.3526C7.91123 38.0918 8.06966 38.9629 8.2809 39.3325C8.57135 39.834 8.65056 39.8868 8.67696 39.5436C8.67696 39.0949 8.70337 39.0949 9.33708 39.5436C9.68034 39.7812 9.99719 40.0716 9.99719 40.2036C9.99719 40.3092 9.23146 40.3884 8.2809 40.3884C7.22472 40.3884 6.03652 40.1772 5.19157 39.8604C4.32022 39.5436 3.31685 38.8837 2.52472 38.0918C1.8118 37.4054 0.993259 36.2967 0.676405 35.6368C0.333147 34.924 0.0691017 33.7626 0.0162928 32.733C-0.0365162 31.7827 0.0426972 30.542 0.201124 29.9613C0.333147 29.3805 0.808427 28.3774 1.2573 27.7175C1.67978 27.0575 3.50168 25.2625 5.29719 23.7314C7.06629 22.2004 9.68034 20.0622 11.0534 18.9799C12.4264 17.8976 14.9348 16.1289 16.5983 15.0202C18.2618 13.9115 21.0607 12.2221 22.8034 11.2718Z" fill="#676765"/>
<path d="M106.796 46.3015C107.799 45.272 109.04 44.1633 109.542 43.8729L110.466 43.2922L111.126 43.9257C111.496 44.2689 112.526 45.272 113.45 46.1167C114.348 46.9614 115.113 47.8062 115.087 47.991C115.087 48.1493 115.166 48.3077 115.298 48.3077C115.404 48.2813 115.668 48.6773 115.879 49.1525C116.09 49.6276 116.275 50.1556 116.302 50.2876C116.328 50.4459 115.721 50.5251 114.797 50.4987C113.899 50.4459 113.239 50.5251 113.239 50.6835C113.239 50.8419 113.054 50.9475 112.843 50.9475C112.631 50.9475 112.077 51.2379 111.654 51.6074C111.232 51.977 110.862 52.4258 110.862 52.6105C110.862 52.7689 110.387 53.4025 109.806 53.9832C109.199 54.564 108.354 55.5671 107.931 56.227C107.377 57.0718 107.166 57.7317 107.166 58.55C107.166 59.1572 107.351 60.0283 107.958 61.2426L107.113 61.0842C106.638 60.9786 106.136 60.8466 105.977 60.741C105.819 60.6618 105.661 60.5826 105.581 60.5826C105.502 60.5562 105.185 60.477 104.868 60.3715C104.525 60.2659 104.261 60.0811 104.261 59.9227C104.261 59.7907 104.156 59.7115 103.997 59.7907C103.839 59.8699 103.548 59.6323 103.337 59.2628C103.126 58.8932 102.756 58.6028 102.545 58.6028C102.334 58.6028 101.674 58.0485 101.093 57.3621C100.485 56.6494 100.01 55.8575 100.01 55.5671C100.01 55.2767 100.327 54.4584 100.723 53.7192C101.093 53.0065 102.202 51.4491 103.179 50.2876C104.182 49.1261 105.793 47.331 106.796 46.3015Z" fill="#676765"/>
<path d="M88.6825 64.9646C89.4747 64.3311 90.4252 63.724 90.7949 63.6184C91.2966 63.46 91.587 63.5656 92.0623 64.0671C92.3792 64.4103 92.7224 64.7007 92.8545 64.7007C92.9601 64.7007 93.8314 65.4926 94.8348 66.4693C95.8118 67.446 96.6039 68.3435 96.6039 68.4491C96.6039 68.5547 96.8415 68.9243 97.132 69.2411C97.4224 69.5578 97.6601 69.9802 97.6601 70.165C97.6601 70.4026 97.4488 70.3762 96.9472 70.0594C96.4191 69.769 95.891 69.6898 95.1516 69.7954C94.5707 69.901 93.8314 70.1386 93.5146 70.3498C93.1713 70.5874 91.8775 71.96 90.6101 73.4119C89.3163 74.8902 87.9696 76.5796 87.5472 77.1868C87.0719 77.8995 86.8342 78.6122 86.8342 79.2722C86.8342 79.8529 86.9399 80.1961 87.0983 80.1433C87.2567 80.0641 87.4151 80.3281 87.4679 80.724C87.5208 81.12 87.5208 81.516 87.4415 81.5952C87.3623 81.648 87.2567 81.5688 87.2039 81.384C87.1511 81.1992 86.9927 81.12 86.8342 81.1992C86.6758 81.252 86.5702 81.1992 86.5702 81.0672C86.5702 80.9088 86.4646 80.856 86.3061 80.9352C86.1477 80.988 86.0421 80.9352 86.0421 80.8032C86.0421 80.6449 85.8573 80.5393 85.646 80.5393C85.4348 80.5393 85.1972 80.3545 85.1179 80.1433C85.0387 79.9057 84.9067 79.8001 84.8011 79.8529C84.6691 79.9321 83.8769 79.2458 83.0056 78.3483C82.1342 77.4507 81.3157 76.7116 81.1573 76.7116C80.9988 76.7116 80.8668 76.1573 80.814 75.5237C80.7612 74.6526 80.9196 73.9926 81.3949 73.1479C81.7382 72.488 83.1904 70.6401 84.6163 69.0299C86.0685 67.4196 87.8904 65.5982 88.6825 64.9646Z" fill="#676765"/>
<path d="M112.895 50.9475C113.08 50.9475 113.265 50.8155 113.265 50.6571C113.292 50.4459 113.846 50.3931 114.823 50.4459C115.668 50.4987 116.46 50.6571 116.592 50.7627C116.698 50.8947 116.803 51.845 116.803 52.8745C116.803 54.3792 116.645 55.0655 116.09 56.227C115.721 57.0189 114.823 58.2068 114.11 58.8404C113.424 59.5003 112.315 60.2658 111.654 60.5298C110.994 60.8202 109.912 61.1106 109.252 61.2162C108.063 61.3745 108.011 61.3482 107.588 60.5034C107.351 60.0547 107.166 59.1571 107.166 58.5236C107.166 57.7317 107.377 57.0717 107.931 56.227C108.354 55.5671 109.199 54.564 109.806 53.9832C110.387 53.4025 110.889 52.7953 110.915 52.6105C110.942 52.4521 111.311 52.0034 111.76 51.6338C112.209 51.2642 112.737 50.9475 112.895 50.9475Z" fill="#676765"/>
<path d="M90.7157 73.2535C92.0095 71.8016 93.4618 70.4025 93.9635 70.165C94.4652 69.901 95.2309 69.6898 95.6798 69.6898C96.1022 69.6898 96.7095 69.8746 97 70.0858C97.2904 70.297 97.6073 70.4025 97.7129 70.3498C97.8449 70.2706 98.0562 70.8513 98.2146 71.5904C98.3994 72.356 98.4522 73.6495 98.3994 74.4414C98.3202 75.2333 97.9505 76.474 97.5809 77.2131C97.2376 77.9259 96.3927 79.0346 95.7062 79.6417C95.0461 80.2753 94.1747 80.9352 93.7522 81.1464C93.3562 81.3576 92.3792 81.6479 91.5871 81.7799C90.6893 81.9383 89.6595 81.9647 88.9466 81.8327C88.2865 81.7007 87.6792 81.4368 87.5736 81.252C87.468 81.0672 87.3623 80.6976 87.3623 80.4337C87.3623 80.1961 87.2303 80.0377 87.0983 80.1169C86.9399 80.1961 86.8343 79.8265 86.8343 79.2458C86.8343 78.5858 87.0719 77.8731 87.6 77.0812C88.0489 76.4212 89.4483 74.7054 90.7157 73.2535Z" fill="#676765"/>
<path d="M79.9955 30.7532C80.0483 30.4892 80.4972 30.0141 80.9724 29.6973C81.4477 29.4069 82.0814 29.1429 82.3719 29.0901C82.6359 29.0637 82.9264 29.1429 83.0056 29.3013C83.0848 29.4597 83.296 29.4861 83.4809 29.4069C83.6921 29.3277 83.9297 29.3805 84.009 29.5389C84.1146 29.6973 84.2994 29.7765 84.4578 29.6973C84.5899 29.6181 85.0123 29.6709 85.382 29.8293C85.7517 29.9877 86.0157 30.1725 85.9893 30.3044C85.9629 30.41 86.1741 31.202 86.4118 32.0731C86.8871 33.6569 86.8871 33.6569 86.2797 34.924C85.9365 35.6368 85.4348 36.4023 85.1708 36.6399C84.7219 37.0622 84.6955 37.0622 84.7219 35.7688L84.2994 36.4287C84.0354 36.7983 83.5601 37.511 83.1904 38.0126C82.768 38.6197 82.4775 38.8309 82.3719 38.6197C82.2663 38.4085 81.8438 38.8045 81.1837 39.6756C80.5236 40.5731 80.1275 40.9427 79.9955 40.7051C79.8899 40.4675 79.4938 40.7579 78.7809 41.629C78.0944 42.4738 77.7247 42.7641 77.6455 42.5002C77.5663 42.2098 77.355 42.289 76.8005 42.8961C76.1668 43.5561 76.0876 43.7936 76.2989 44.2952C76.4837 44.744 76.4309 44.9023 76.1404 45.0079C75.9292 45.0871 75.5331 45.0343 75.2691 44.8759C75.0314 44.744 74.7674 44.6912 74.6882 44.7704C74.609 44.8495 74.1073 44.8495 73.5528 44.7704C73.0247 44.6912 72.3382 44.3744 72.0477 44.084C71.6957 43.732 71.5196 43.2041 71.5196 42.5002C71.5196 41.9194 71.6253 41.1539 71.7837 40.7843C71.9157 40.4147 72.7607 39.3852 73.632 38.4877C74.4769 37.5638 75.2163 36.7191 75.2163 36.5607C75.2163 36.4023 76.2989 35.1616 77.5663 33.7889C78.8601 32.4163 79.9427 31.0436 79.9955 30.7532Z" fill="#676765"/>
<path d="M57.7893 56.6229C57.9477 56.7021 58.1062 56.6493 58.159 56.5437C58.2118 56.4117 58.6607 56.3061 60.0337 56.2533L59.2944 56.7021C58.8983 56.9397 58.5814 57.3356 58.5814 57.5468C58.5814 57.758 58.4758 58.0484 58.3438 58.2068C58.159 58.3651 58.159 58.6291 58.3174 58.8667C58.555 59.2099 58.5814 59.2099 58.5814 58.8667C58.5814 58.5235 58.6078 58.5235 58.8455 58.8667C58.9775 59.0779 59.0831 59.7378 59.0831 60.3186C59.0831 60.8993 58.9775 61.6121 58.8455 61.9024C58.6607 62.3512 58.6078 62.272 58.5814 61.5065C58.555 60.6089 58.5286 60.6089 58.291 61.2425C58.1326 61.6121 57.6309 62.404 57.182 63.0375C56.5219 63.9087 56.3107 64.0934 56.205 63.7503C56.0994 63.4335 55.809 63.7239 55.0696 64.7798C54.5416 65.5981 53.9871 66.2052 53.8286 66.1261C53.6702 66.0469 53.0893 66.6804 52.5084 67.4987C51.9275 68.3435 51.3994 69.0034 51.3202 68.9506C51.241 68.9242 50.7393 69.4522 50.2112 70.1385C49.6831 70.8512 49.2079 71.2472 49.155 71.0624C49.1022 70.904 48.6005 71.3264 48.0196 72.0655C47.4388 72.7783 46.8843 73.3326 46.7522 73.2534C46.6466 73.1742 46.0657 73.623 45.432 74.2301C44.8247 74.8637 44.323 75.286 44.323 75.1541C44.323 75.0485 43.927 75.286 43.4517 75.6556C43.0028 76.0516 42.1579 76.5795 41.6034 76.8435C40.732 77.2923 40.6264 77.4506 40.6264 78.401C40.6264 78.9817 40.732 79.7472 40.8904 80.1168C41.1281 80.724 41.1017 80.7504 40.6 80.5656C40.2831 80.46 39.5702 79.8792 39.0157 79.2457C38.4348 78.6385 37.7483 77.609 37.4579 76.9491C37.1674 76.2892 36.9298 75.4972 36.9562 75.1541C36.9562 74.8109 37.009 74.7317 37.1146 74.9693C37.2026 75.2332 37.5107 74.9253 38.0388 74.0454C38.4876 73.3062 39.5438 72.0655 40.3888 71.2736C41.2337 70.4817 41.9466 69.6369 41.9466 69.4258C41.9466 69.2146 42.4747 68.581 43.1348 68.0267C43.7949 67.4987 44.323 66.8916 44.323 66.7068C44.323 66.5484 44.8511 65.9677 45.5112 65.4661C46.1449 64.9646 46.673 64.3574 46.673 64.1462C46.673 63.9351 47.0691 63.4335 47.5444 63.0639C48.0196 62.668 48.7062 62.0872 49.0758 61.7704C49.4455 61.4537 50.132 60.8729 50.6073 60.477C51.0826 60.1074 51.4786 59.685 51.4786 59.5266C51.4786 59.3683 51.7691 58.9987 52.1123 58.6555C52.4556 58.3123 52.9837 58.022 53.2741 57.9956C53.591 57.9692 53.8286 57.8636 53.8286 57.7316C53.8286 57.626 54.0135 57.5996 54.2247 57.6788C54.4359 57.758 54.6208 57.7052 54.6208 57.5468C54.6208 57.3884 55.0696 57.2036 55.5977 57.0981C56.1522 56.9925 56.6539 56.9133 56.7331 56.8869C56.8123 56.8869 57.0236 56.7813 57.182 56.6757C57.3668 56.5701 57.6309 56.5437 57.7893 56.6229Z" fill="#676765"/>
<path d="M52.5612 29.3806C52.7461 29.4598 53.0893 29.407 53.3006 29.275C53.5118 29.143 53.855 29.0374 54.0135 29.0374C54.1983 29.0374 54.3567 29.143 54.3567 29.3014C54.3567 29.4598 54.2511 29.6182 54.0927 29.6974C53.9343 29.7765 53.8286 30.0933 53.8286 30.4101C53.8022 30.8061 52.9309 31.9412 51.4522 33.525C50.1584 34.8977 49.1022 36.112 49.0758 36.2176C49.0758 36.3496 47.4916 38.039 45.564 40.0188C43.6629 41.9723 42.0258 43.7409 41.973 43.8993C41.9202 44.0841 41.3129 44.7968 40.6264 45.5359C39.9399 46.2487 39.0157 47.4366 38.5404 48.1757C38.0124 49.0468 37.7219 49.8124 37.7219 50.4195C37.7483 51.1322 37.9595 51.5282 38.7253 52.2146C39.6758 53.0593 39.6758 53.0857 39.0949 53.2705C38.7781 53.376 38.4348 53.6136 38.382 53.772C38.3028 53.9568 38.0916 54.1152 37.9067 54.1152C37.7483 54.1152 37.4315 54.3528 37.2466 54.6431C37.0882 54.9335 36.7713 55.1711 36.5865 55.1711C36.4281 55.1711 36.1112 55.4087 35.9264 55.699C35.768 55.9894 35.4511 56.227 35.2663 56.227C35.1079 56.2006 34.4477 56.8077 33.814 57.5469C33.2067 58.2596 32.5202 58.8668 32.309 58.8668C32.0977 58.8668 31.8601 59.0515 31.7809 59.2627C31.7017 59.4739 31.5169 59.6059 31.3848 59.5267C31.2528 59.4475 31.1208 59.4739 31.1208 59.5795C31.1472 59.7115 30.7511 59.9755 30.2758 60.1866C29.8006 60.3978 29.3253 60.609 29.1933 60.6354C29.0876 60.6882 28.982 60.741 28.9292 60.741C28.9028 60.7674 28.586 60.8466 28.2163 60.8994C27.8466 60.9786 27.0809 61.0314 26.5 61.0578C25.9191 61.0578 25.0213 60.9786 24.5197 60.873C24.018 60.7938 23.5427 60.609 23.4635 60.5034C23.3843 60.3978 23.1466 60.2922 22.9354 60.2394C22.7242 60.1866 22.5129 60.0283 22.4601 59.8963C22.4337 59.7643 22.2753 59.6587 22.1433 59.6587C22.0112 59.6587 21.3775 59.1571 19.6084 57.4149L19.8725 56.227C20.1101 55.2503 20.6382 54.5111 22.5393 52.4521C23.8596 51.0267 24.9949 49.8388 25.0742 49.8124C25.1798 49.786 26.3152 48.7565 27.6618 47.5158C28.982 46.2751 30.0646 45.1136 30.0646 44.9288C30.0646 44.7704 30.5927 44.1633 31.2528 43.6089C32.1242 42.8962 32.4674 42.4474 32.441 41.9723C32.4146 41.4971 32.7579 41.0483 33.6292 40.3092C34.2893 39.7813 34.8174 39.1477 34.8174 38.9365C34.8174 38.7254 34.8966 38.5406 35.0022 38.5406C35.1343 38.5406 35.7944 38.0126 36.5337 37.3527C37.2466 36.6927 38.25 35.8744 38.6989 35.5576C39.2534 35.1881 39.5702 34.7657 39.5702 34.3697C39.5702 33.9738 39.8607 33.6306 40.5472 33.2874C41.1017 33.0235 41.7882 32.7331 42.0786 32.7067C42.3691 32.6539 42.6595 32.5219 42.7388 32.4163C42.818 32.3107 43.1612 32.1787 43.5309 32.0995C43.9006 32.0467 44.2174 31.9676 44.2438 31.9676C44.2966 31.9412 44.4022 31.9412 44.5079 31.9676C44.6399 31.9676 44.7719 31.8884 44.8511 31.73C44.9303 31.598 45.3792 31.3604 45.8281 31.202C46.3034 31.0172 46.805 30.938 46.9635 31.0172C47.1219 31.0964 47.2275 31.0436 47.2275 30.8853C47.2275 30.7269 47.4124 30.6741 47.6236 30.7533C47.8348 30.8325 48.0725 30.7797 48.1517 30.6213C48.2309 30.4629 48.3893 30.4101 48.5477 30.4893C48.7062 30.5685 48.8646 30.5157 48.9438 30.3573C49.023 30.1989 49.2607 30.1461 49.4719 30.2253C49.6831 30.3045 49.9208 30.2517 50 30.0933C50.0792 29.9349 50.3168 29.8821 50.5281 29.9613C50.7393 30.0405 50.977 29.9877 51.0562 29.8293C51.1354 29.671 51.373 29.6182 51.5843 29.6974C51.7955 29.7765 52.0331 29.6974 52.0859 29.539C52.1652 29.3806 52.3764 29.3278 52.5612 29.3806Z" fill="#676765"/>
<path d="M70.4106 29.6446C70.4106 29.2487 70.7275 28.8263 71.414 28.3775C72.3118 27.7704 72.6286 27.7176 73.764 27.8496C74.4769 27.9288 75.4803 28.008 75.9292 28.008C76.4045 27.9816 76.959 28.0608 77.1174 28.14C77.3286 28.2455 77.0382 28.5359 76.3253 28.9319C75.5595 29.3806 75.2163 29.7502 75.2163 30.1726C75.1899 30.5421 74.3185 31.6772 72.8399 33.2611C71.546 34.6338 70.4635 35.8745 70.4635 36.0329C70.4635 36.1912 69.6185 37.1943 68.6151 38.2767C66.846 40.2037 66.7932 40.3093 66.7668 41.6556C66.7668 42.3947 66.8724 43.2658 67.0309 43.5562C67.1629 43.8466 67.2685 44.1369 67.2157 44.1897C67.1893 44.2425 66.1331 44.3481 62.5421 44.6121L62.014 43.7674C61.6972 43.213 61.4859 42.4475 61.4859 41.7083C61.5123 40.7316 61.6972 40.2829 62.5421 39.2006C63.0966 38.4878 64.0472 37.4055 64.6545 36.8248C65.2354 36.244 65.7106 35.6633 65.7371 35.5049C65.7371 35.3465 66.7932 34.1058 68.0871 32.7331C69.6713 31.0437 70.4371 30.0406 70.4106 29.6446Z" fill="#676765"/>
<path d="M102.862 39.8341C103.258 39.4909 103.627 39.1214 103.68 39.0158C103.733 38.9102 104.024 38.8574 104.34 38.9102C104.657 38.963 104.948 39.1214 104.974 39.3061C105.027 39.4645 105.212 39.5965 105.37 39.5965C105.555 39.5701 106.083 39.9133 106.506 40.3093C106.928 40.7052 107.403 41.0484 107.509 41.0484C107.641 41.0484 107.879 41.2596 108.037 41.4971C108.222 41.7611 108.512 41.9459 108.671 41.9723C108.856 41.9723 109.199 42.2627 109.41 42.6322C109.621 43.0018 109.912 43.2394 110.07 43.1602C110.202 43.081 110.334 43.1338 110.334 43.2922C110.334 43.4506 110.097 43.609 109.806 43.6882C109.516 43.7673 108.354 44.7441 107.218 45.8792C106.109 46.9879 104.34 48.9413 103.311 50.1556C102.254 51.3963 101.093 52.9801 100.723 53.7193C100.327 54.432 100.036 55.2503 100.036 55.4879C100.036 55.7519 99.8516 55.9631 99.6404 55.9631C99.4292 55.9631 99.0859 55.7255 98.9011 55.4351C98.7426 55.1447 98.4258 54.9072 98.241 54.9072C98.0825 54.9072 97.7393 54.6432 97.528 54.3C97.3168 53.9832 97.132 53.8249 97.132 53.9832C97.1056 54.1416 96.9207 53.9832 96.6567 53.6665C96.419 53.3497 96.1286 53.1649 96.023 53.2705C95.9174 53.3761 95.7589 53.2441 95.6797 52.9801C95.6005 52.7425 95.4421 52.5842 95.2837 52.6634C95.1252 52.7425 94.914 52.5578 94.7556 52.2674C94.5971 51.977 94.4915 51.2907 94.4915 50.7363C94.4915 50.1556 94.782 49.2317 95.2572 48.4397C95.6797 47.7006 97.3696 45.6152 99.0595 43.7673C100.723 41.9459 102.439 40.1509 102.862 39.8341Z" fill="#676765"/>
<path d="M82.3455 60.6354C82.3455 60.4771 82.7415 60.0547 83.2168 59.7379C83.6657 59.4212 84.2202 59.1572 84.3786 59.1572C84.5634 59.1308 85.1707 59.3948 85.6988 59.7115C86.2533 60.0283 86.755 60.3979 86.8342 60.5299C86.9134 60.6618 87.0455 60.7146 87.1511 60.6618C87.2567 60.6354 87.5735 60.7938 87.8904 61.0314C88.1808 61.2954 88.5241 61.5066 88.6825 61.5066C88.8146 61.5066 88.9466 61.6122 88.9466 61.7705C88.9466 61.9289 89.0522 62.0345 89.2106 62.0345C89.3426 62.0345 89.8443 62.2721 90.2668 62.5625C90.6893 62.8528 91.0589 63.196 91.0589 63.3544C91.0589 63.5128 90.9005 63.6184 90.7157 63.6184C90.5573 63.592 89.6859 64.1727 88.8146 64.8591C87.9432 65.5454 86.0685 67.4196 84.6162 69.0035C83.1904 70.6138 81.7382 72.4616 81.3949 73.1215C81.0516 73.7815 80.7612 74.7846 80.7348 75.3653C80.7348 75.9461 80.682 76.2629 80.6028 76.0781C80.55 75.9197 80.3651 75.8141 80.2331 75.8933C80.0747 75.9725 79.9162 75.8405 79.837 75.6293C79.7578 75.4181 79.6258 75.2861 79.4938 75.3653C79.3882 75.4181 79.0713 75.2597 78.7808 75.0222C78.4904 74.7582 78.1207 74.5206 77.9887 74.4942C77.8303 74.4678 77.5134 74.3886 77.2494 74.3094C77.0117 74.2302 76.8005 74.0718 76.8005 73.9135C76.8005 73.7551 76.6685 73.7023 76.5365 73.7815C76.378 73.8607 76.2724 73.8079 76.2724 73.6495C76.2724 73.4911 76.1932 73.4119 76.0612 73.4119C75.9556 73.4383 75.6651 73.4383 75.4011 73.4119C75.1634 73.4119 74.7674 73.2007 74.5561 72.9895C74.2921 72.7256 74.1601 72.092 74.1601 71.1945C74.1601 70.3234 74.3449 69.5578 74.6353 69.1355C74.873 68.7395 76.4573 66.9181 78.1207 65.0966C79.7842 63.2488 81.4213 61.5858 81.7382 61.3746C82.0814 61.1634 82.3455 60.8202 82.3455 60.6354Z" fill="#676765"/>
<path d="M99.9045 37.4319C100.406 37.0887 100.749 36.7455 100.617 36.6136C100.512 36.508 100.512 36.4288 100.644 36.4288C100.749 36.4288 101.647 36.9567 102.677 37.6167C103.707 38.2766 104.525 38.8574 104.525 38.9365C104.525 39.0157 104.42 39.0157 104.261 38.9365C104.129 38.8574 103.68 39.0685 103.284 39.4117C102.862 39.7285 101.911 40.6524 101.172 41.4443C100.406 42.2363 99.7724 42.7378 99.7724 42.5794C99.7724 42.3946 99.5876 42.2363 99.3764 42.2363C99.1651 42.2363 98.9803 42.1307 98.9803 41.9723C98.9803 41.8139 98.7955 41.7083 98.5842 41.7083C98.373 41.7083 98.1882 41.6027 98.1882 41.4443C98.1882 41.2859 97.8977 41.1276 97.5281 41.0484C97.1584 40.9692 96.868 40.8372 96.868 40.7316C96.8416 40.5996 97.3168 40.0716 97.9241 39.5437C98.505 38.9893 98.9803 38.435 98.9803 38.2766C98.9803 38.1182 99.4028 37.7487 99.9045 37.4319Z" fill="#676765"/>
<path d="M91.3494 48.7037C91.4286 47.5686 91.6663 46.8822 92.0887 46.2751C92.5112 45.7207 92.9601 45.404 93.3562 45.404C93.673 45.404 94.3859 45.6152 94.8876 45.8791C95.3893 46.1167 95.8382 46.5127 95.891 46.7239C95.9438 46.935 95.6269 47.7798 95.2045 48.5717C94.5972 49.7068 94.4387 50.2611 94.518 51.1323C94.5708 51.7658 94.5708 52.241 94.4916 52.1882C94.4123 52.1618 93.673 51.713 91.2438 50.2875L91.3494 48.7037Z" fill="#676765"/>
<path d="M79.5202 58.286C80.1011 57.8373 80.3651 57.4941 80.1803 57.4149C79.9955 57.3357 80.1275 57.3621 80.4972 57.4413C80.8668 57.5469 81.8702 57.9429 84.3258 59.0252L83.3489 59.6851C82.7944 60.0283 82.3455 60.4242 82.3455 60.5826C82.3455 60.741 81.7382 61.3482 81.0253 61.9817C79.8635 62.9584 79.6522 63.0376 79.309 62.6944C79.0977 62.4833 78.6753 62.2985 78.3848 62.2985C78.0944 62.2985 77.8567 62.1929 77.8567 62.0345C77.8567 61.8761 77.5663 61.7705 77.1966 61.7705C76.8269 61.7705 76.5365 61.6913 76.5365 61.6121C76.5365 61.5329 76.9854 60.9258 77.5399 60.2395C78.068 59.5795 78.9657 58.7084 79.5202 58.286Z" fill="#676765"/>
<path d="M70.1466 69.8482C70.0938 68.5547 70.1994 68.106 70.4899 68.0268C70.6747 67.9476 71.4668 67.8684 72.1798 67.8684C72.9191 67.842 73.8696 67.9212 75.1899 68.2379L74.6354 69.1619C74.1865 69.901 74.1073 70.3762 74.3185 72.9895L72.9719 72.6464C72.259 72.488 71.3876 72.3296 71.0708 72.3296C70.5691 72.3296 70.4899 72.224 70.6483 71.7488C70.7803 71.3001 70.7539 71.1945 70.5163 71.3529C70.2786 71.4849 70.173 71.0889 70.1466 69.8482Z" fill="#676765"/>
<path d="M87.9432 34.3433C88.4185 34.0529 89.2899 33.6306 89.8708 33.4194C90.5045 33.1818 91.6399 33.0498 92.696 33.0762C93.6994 33.1026 94.4916 33.2082 94.4916 33.3402C94.4916 33.4458 94.5972 33.4722 94.7556 33.393C94.914 33.3138 95.0196 33.3666 95.0196 33.525C95.0196 33.6834 95.0989 33.7361 95.2309 33.6834C95.3365 33.6306 95.9438 33.8681 96.6039 34.2113C97.264 34.5281 97.6865 34.8185 97.5281 34.8448C97.3696 34.8448 96.5775 35.5048 95.759 36.2967C94.914 37.0887 94.2275 37.8014 94.2275 37.8806C94.2275 37.9598 92.9865 39.4116 91.455 41.1275C89.9236 42.8169 88.4977 44.6384 88.2601 45.1399C87.996 45.7207 87.864 46.539 87.9168 47.3309C87.9696 48.0173 87.996 48.5716 87.9696 48.5716C87.9168 48.5716 87.2039 48.3077 86.3854 47.9909C85.5404 47.6741 84.8011 47.3045 84.7219 47.1726C84.6427 47.0406 84.5371 46.9614 84.4578 47.0142C84.3786 47.0406 84.0354 47.0142 83.6657 46.9086C83.296 46.8294 82.9528 46.7502 82.8736 46.7502C82.7944 46.7502 82.6623 46.539 82.5567 46.275C82.4511 46.0111 82.3719 44.9024 82.3719 43.8201C82.3719 41.8402 82.3719 41.8402 83.5337 40.4676C84.405 39.438 84.7219 38.8309 84.7219 38.2237C84.7483 37.511 84.9595 37.1942 85.9101 36.5079C86.5702 36.0327 87.0983 35.452 87.0983 35.2408C87.0983 35.0296 87.4944 34.6073 87.9432 34.3433Z" fill="#676765"/>
<path d="M66.7932 57.4148C67.3741 56.9925 68.0607 56.2797 68.2983 55.8838C68.7208 55.1974 68.8528 55.1446 69.8034 55.303C70.3843 55.3822 71.3348 55.5142 71.9157 55.5934C72.4966 55.6462 73.2887 55.699 73.7112 55.699C74.1073 55.699 74.4769 55.8046 74.5562 55.9366C74.6354 56.0686 74.8994 56.1214 75.1635 56.0422C75.4011 55.963 75.6916 56.0422 75.8236 56.2006C75.9292 56.3589 75.8236 56.5437 75.6123 56.6229C75.4011 56.7021 75.2163 56.8341 75.2163 56.9661C75.2427 57.0717 74.6618 57.758 73.9753 58.4707C73.2623 59.2099 71.4668 61.1633 69.9354 62.8264C68.4039 64.5158 66.714 66.4164 66.1595 67.05C65.4202 67.9475 65.1562 68.4755 65.1826 69.1618C65.1826 69.6634 65.2618 70.3761 65.3674 70.7457C65.4994 71.3 65.5522 71.3264 65.6843 70.9304C65.8163 70.5609 65.8955 70.6137 66.1859 71.2736C66.5028 72.0391 66.4764 72.0655 65.7899 72.0391C65.3674 72.0391 64.5753 72.1183 63.9944 72.1975C63.4135 72.3031 62.7005 72.4087 62.4101 72.4615C62.1196 72.5143 61.8292 72.5671 61.75 72.6199C61.6708 72.6463 61.5123 72.6991 61.3539 72.7255C61.1955 72.7783 61.0107 72.8047 60.905 72.8311C60.773 72.8311 60.6146 72.8839 60.509 72.9367C60.377 72.9631 60.0337 73.1478 59.7168 73.3326C59.3736 73.5174 59.1095 73.5966 59.1095 73.5174C59.1095 73.4382 58.5286 73.755 57.7893 74.1774C57.0764 74.5997 56.4691 74.9165 56.4691 74.8373C56.4691 74.7581 56.205 74.9429 55.8882 75.2333C55.5449 75.5236 55.1225 75.7612 54.964 75.7612C54.7792 75.7612 54.568 75.946 54.4888 76.1572C54.4095 76.3684 54.2511 76.5003 54.0927 76.4212C53.9343 76.342 53.7758 76.4212 53.6966 76.5531C53.6174 76.7115 53.3798 76.8171 53.1685 76.8171C52.9573 76.8171 52.482 76.5267 51.4522 75.4972V76.7643C51.4786 77.8994 51.4258 77.9786 51.0562 77.6091C50.8185 77.3979 50.6337 76.7907 50.6337 76.2892C50.6337 75.7876 50.8713 75.0749 51.1354 74.7053C51.3994 74.3357 51.7691 73.6758 51.9275 73.2534C52.0859 72.8311 52.5876 72.0919 53.0365 71.6696C53.4854 71.2472 53.8286 70.6665 53.8286 70.4289C53.8286 70.1649 54.3039 69.5842 54.8848 69.1618C55.4657 68.7394 56.0202 68.3699 56.1522 68.3699C56.2579 68.3699 57.2348 67.7099 58.3174 66.8916C59.4 66.0733 60.9843 64.8326 61.8292 64.1198C62.859 63.2223 63.3343 62.6416 63.3343 62.2456C63.3078 61.8497 63.7567 61.2161 64.5225 60.5298C65.2354 59.8434 65.7107 59.1571 65.7107 58.8139C65.7107 58.418 66.1067 57.9164 66.7932 57.4148Z" fill="#676765"/>
<path d="M59.0831 28.3775C59.7432 28.3247 60.3241 28.1927 60.4034 28.1135C60.4562 28.0343 60.6674 27.9815 60.8786 27.9815C61.1163 27.9815 61.1691 28.1663 61.0107 28.5623C60.905 28.879 60.5882 29.1958 60.2977 29.275C60.0073 29.3542 58.9775 29.8029 57.9741 30.2781C56.6539 30.938 56.205 31.0436 56.1786 30.7797C56.1786 30.4893 55.8882 30.5421 54.964 31.07C53.9079 31.6508 53.7758 31.8092 53.8022 32.6275C53.8286 33.3138 53.6702 33.657 53.0893 34.053C52.6933 34.3697 52.1652 34.6601 51.9011 34.7129C51.5843 34.8185 51.4522 35.1089 51.4522 35.9008C51.4522 36.8511 51.3202 37.0359 50.264 37.8014C49.2871 38.5142 49.0758 38.8309 49.0758 39.4645C49.0758 40.098 48.8382 40.4676 47.8876 41.2331C47.2011 41.8139 46.6994 42.4474 46.6994 42.7642C46.6994 43.0546 46.4618 43.6881 46.1713 44.1369C45.8809 44.612 45.6433 45.4831 45.6433 46.0639C45.6168 46.7502 45.8017 47.3574 46.1449 47.7797C46.5938 48.3077 46.673 48.3605 46.6994 47.9645C46.6994 47.7269 46.7786 47.5158 46.8843 47.5158C47.0163 47.5158 47.3331 47.7006 47.6236 47.9117C48.1517 48.2549 48.1253 48.2813 47.4916 48.4661C47.1219 48.5717 46.7786 48.6509 46.6994 48.6509C46.6202 48.6509 46.409 48.8356 46.2242 49.0204C46.0657 49.2052 45.8017 49.3108 45.6433 49.2316C45.4848 49.1524 45.3792 49.2052 45.3792 49.3636C45.3792 49.522 45.2736 49.5748 45.1152 49.4956C44.9567 49.4164 44.8511 49.4428 44.8511 49.5484C44.8511 49.6804 44.5343 49.918 44.1382 50.1291C43.7421 50.3403 43.3197 50.4987 43.1876 50.4723C43.082 50.4459 43.0028 50.5251 43.0028 50.6835C43.0028 50.8419 42.8972 50.8947 42.7388 50.8155C42.5803 50.7363 42.4483 50.7891 42.3955 50.8947C42.3691 51.0267 41.7882 51.5018 41.0753 51.9506C40.3624 52.4521 39.8343 52.6633 39.8343 52.4521C39.8343 52.2146 39.7815 52.2146 39.623 52.4785C39.491 52.7425 39.227 52.6105 38.5669 52.0298C37.9595 51.4226 37.7219 50.9739 37.7219 50.3667C37.7219 49.8388 38.0388 48.9676 38.5404 48.1757C39.0157 47.4366 39.9399 46.2487 40.6264 45.5359C41.3129 44.7968 41.9202 44.0841 41.973 43.8993C42.0258 43.7409 43.6629 41.9723 45.564 40.0188C47.4916 38.039 49.0758 36.3496 49.0758 36.244C49.1022 36.112 50.1584 34.8977 51.4522 33.525C52.7725 32.1259 53.8022 30.7797 53.8022 30.4893C53.8022 30.1989 54.1191 29.6974 54.4624 29.3806C54.832 29.0638 55.3337 28.7998 55.5977 28.7734C55.8618 28.7734 56.4955 28.7206 56.9972 28.6414C57.4989 28.5623 58.4494 28.4567 59.0831 28.3775Z" fill="#676765"/>
<path d="M75.1634 30.1725C75.137 29.7501 75.4539 29.407 76.2988 28.9318C76.9325 28.5623 77.6719 28.2455 77.9095 28.2455C78.1736 28.2455 79.0185 28.3775 79.7578 28.5359C80.5236 28.6942 81.3421 28.8526 81.5533 28.9318C81.8174 29.011 81.659 29.2222 81.0252 29.6446C80.5236 29.9877 80.0483 30.4893 79.9955 30.7533C79.9427 31.0436 78.8601 32.4163 77.5663 33.789C76.2988 35.1617 75.2163 36.4024 75.2163 36.5607C75.2163 36.7191 74.4769 37.5639 73.632 38.4878C72.7606 39.3853 71.9157 40.4148 71.7837 40.7844C71.6252 41.1539 71.5196 41.8667 71.5196 42.3682C71.5196 42.8698 71.6252 43.5297 71.7837 43.8201C71.9157 44.1105 72.0213 44.4008 71.9685 44.48C71.9421 44.5592 70.8859 44.5328 69.6185 44.4272C67.5854 44.2425 67.2685 44.1369 67.0309 43.6353C66.8988 43.2921 66.7668 42.3946 66.7668 41.6555C66.7932 40.3092 66.846 40.2036 68.6151 38.2766C69.6185 37.1943 70.4634 36.1912 70.4634 36.0328C70.4634 35.8744 71.546 34.6337 72.8399 33.261C74.4065 31.5892 75.181 30.5597 75.1634 30.1725Z" fill="#676765"/>
<path d="M46.5674 61.4273C47.5708 60.7674 49.3135 59.8171 50.396 59.2891C51.4786 58.7612 52.4292 58.3388 52.5084 58.3388C52.5876 58.3652 52.3764 58.5764 52.0331 58.814C51.6899 59.0515 51.4522 59.3683 51.4522 59.5267C51.4786 59.6851 51.0826 60.1075 50.6073 60.477C50.132 60.873 49.4455 61.4537 49.0758 61.7705C48.7062 62.0873 48.0196 62.668 47.5444 63.064C47.0691 63.4336 46.673 63.9351 46.673 64.1463C46.673 64.3575 46.1449 64.9646 45.5112 65.4662C44.8511 65.9677 44.323 66.5485 44.323 66.7333C44.323 66.8917 43.7949 67.4988 43.1348 68.0531C42.4747 68.5811 41.9466 69.2146 41.9466 69.4258C41.9466 69.637 41.2337 70.4817 40.3887 71.2737C39.5438 72.0656 38.4876 73.3327 38.0123 74.0454C37.5635 74.7845 37.1938 75.2069 37.1938 75.0485C37.1938 74.8373 37.0618 74.7845 36.8769 74.9165C36.6657 75.0485 36.6129 74.6262 36.6921 73.2535C36.7713 72.0128 37.0354 70.9833 37.4578 70.0858C37.8275 69.373 38.6989 68.1323 39.4382 67.3404C40.1511 66.5749 41.6562 65.1758 42.7387 64.2783C43.8213 63.3808 45.5376 62.0873 46.5674 61.4273Z" fill="#676765"/>
<path d="M86.4117 32.0204C86.0949 30.9908 86.0157 30.3309 86.1741 30.2517C86.3325 30.1989 86.5438 30.1725 86.7022 30.2253C86.8606 30.2517 87.6528 30.5157 88.4977 30.7797C89.3426 31.0436 90.0028 31.3076 90.0028 31.3868C90.0028 31.466 90.2668 31.5716 90.5837 31.598C90.9269 31.6508 91.2438 31.7564 91.323 31.862C91.4022 31.994 91.6926 32.1259 91.9831 32.1523C92.2735 32.2051 92.564 32.3635 92.6432 32.5219C92.7224 32.6539 92.8544 32.7595 92.9601 32.7595C93.0921 32.7331 93.3561 32.7331 93.5674 32.7331C93.7786 32.7331 93.9634 32.8123 93.9634 32.9443C93.9634 33.0499 93.1713 33.1291 92.1679 33.1291C90.7685 33.1291 90.082 33.2874 88.8674 33.8682C87.8904 34.3169 87.2567 34.8185 87.0983 35.2409C86.9398 35.6104 86.3589 36.2176 85.778 36.6399C84.9331 37.2207 84.7219 37.5111 84.7219 38.2238C84.7219 38.8573 84.405 39.4381 82.3191 41.8403L82.3983 44.1105C82.4775 46.0111 82.3983 46.3807 82.0814 46.3279C81.8702 46.3015 81.2365 46.1959 80.6556 46.0375C80.1011 45.9055 79.5994 45.7207 79.5466 45.6151C79.4938 45.4832 79.2561 45.4568 79.0449 45.536C78.8337 45.6151 78.4904 45.5623 78.3056 45.404C78.1471 45.272 77.9359 45.2192 77.8567 45.2984C77.7775 45.3776 77.4606 45.3776 77.1174 45.2984C76.8005 45.1928 76.4309 44.8232 76.2988 44.4272C76.0876 43.7937 76.1668 43.5825 76.8005 42.8962C77.355 42.289 77.5662 42.2098 77.6455 42.5002C77.7247 42.7642 78.0943 42.4738 78.7809 41.6291C79.4938 40.758 79.8898 40.4676 79.9955 40.7052C80.1275 40.9428 80.5236 40.5732 81.1837 39.6757C81.8438 38.8045 82.2662 38.4086 82.3719 38.6198C82.4775 38.8309 82.7679 38.6198 83.1904 38.0126C83.5601 37.5111 84.0353 36.7983 84.7219 35.7688V36.4288C84.6955 37.0623 84.7219 37.0623 85.1707 36.6399C85.4348 36.4024 85.9365 35.6368 86.9134 33.657L86.4117 32.0204Z" fill="#676765"/>
<path d="M63.5719 55.5671C64.364 55.5143 65.0769 55.3823 65.1561 55.3031C65.209 55.2239 66.0275 55.1711 66.9516 55.1711C67.8758 55.1711 68.6151 55.2767 68.6151 55.4351C68.6151 55.5935 68.1134 56.227 67.4797 56.8869C66.8724 57.5469 66.2123 58.0748 66.0275 58.0748C65.8691 58.0748 65.7106 58.3652 65.7106 58.7348C65.7106 59.1835 65.3146 59.7643 64.5224 60.5034C63.7567 61.2162 63.3078 61.8497 63.3342 62.2193C63.3342 62.6416 62.8589 63.2224 61.8028 64.1199C60.9842 64.8326 59.4 66.0733 58.3174 66.8917C57.2348 67.71 56.2578 68.3699 56.1258 68.3699C56.0202 68.3699 55.4657 68.7395 54.8848 69.1619C54.3039 69.5842 53.8286 70.165 53.8286 70.4025C53.8286 70.6665 53.4854 71.2473 53.0365 71.6696C52.5876 72.092 52.0859 72.8311 51.9275 73.2535C51.7691 73.6759 51.3994 74.3358 51.1354 74.7054C50.8713 75.0749 50.6337 75.7877 50.6337 76.2892C50.6337 76.7908 50.8185 77.3979 51.0561 77.6091C51.4258 77.9787 51.4786 77.8995 51.4522 75.4973L52.0331 76.1044C52.3764 76.4476 52.8252 76.7908 53.0365 76.8964C53.3269 77.002 52.9837 77.4771 51.7163 78.7178C50.7657 79.6417 49.3927 80.6712 48.6797 81.0144C47.7996 81.4192 46.6994 81.6655 45.3792 81.7535C43.9533 81.8327 43.082 81.7535 42.2635 81.4632C41.6561 81.2256 41.1545 80.9352 41.1545 80.7768C41.1545 80.6184 41.0752 80.5656 40.9432 80.6184C40.8376 80.6712 40.732 79.9585 40.6264 77.3451L41.6033 76.8436C42.1578 76.5796 43.0028 76.0516 43.4517 75.6557C43.9269 75.2861 44.323 75.0485 44.323 75.1541C44.323 75.2861 44.8247 74.8637 45.432 74.2302C46.0657 73.6231 46.6466 73.1743 46.7522 73.2535C46.8842 73.3327 47.4387 72.7783 48.0196 72.0656C48.6005 71.3265 49.1022 70.9041 49.155 71.0625C49.2078 71.2473 49.6831 70.8513 50.2112 70.1386C50.7393 69.4522 51.241 68.9243 51.3202 68.9507C51.3994 69.0035 51.9275 68.3435 52.5084 67.4988C53.0893 66.6805 53.6702 66.0469 53.8286 66.1261C53.987 66.2053 54.5415 65.5982 55.0696 64.7798C55.809 63.7239 56.0994 63.4336 56.205 63.7503C56.3106 64.0935 56.5219 63.9087 57.182 63.0376C57.6309 62.4041 58.1325 61.6121 58.291 61.2426C58.5286 60.609 58.555 60.609 58.5814 61.5065C58.6078 62.2721 58.6606 62.3513 58.8455 61.9025C58.9775 61.6121 59.0831 60.8994 59.0831 60.3186C59.0831 59.7379 58.9775 59.0779 58.8455 58.8668C58.6078 58.5236 58.5814 58.5236 58.5814 58.8668C58.5814 59.2099 58.555 59.2099 58.3174 58.8668C58.159 58.6292 58.159 58.3652 58.3438 58.2068C58.4758 58.0484 58.5814 57.7581 58.5814 57.5469C58.5814 57.3357 58.8719 56.9661 59.2415 56.755C59.7432 56.4646 59.8224 56.3062 59.5848 56.1478C59.3736 56.0158 59.4792 55.9894 59.8224 56.0686C60.1657 56.1478 60.4825 56.1214 60.5618 55.963C60.641 55.8046 61.0106 55.699 61.4067 55.699C61.8292 55.699 62.8061 55.6463 63.5719 55.5671Z" fill="#676765"/>
<path d="M30.1966 39.0685C31.6489 38.0918 34.2629 36.4816 36.0056 35.5312C37.7483 34.5809 39.2534 33.789 39.3854 33.789C39.491 33.789 39.5702 34.053 39.5702 34.3961C39.5702 34.7657 39.2534 35.1881 38.6989 35.5576C38.25 35.8744 37.273 36.6927 36.5337 37.3527C35.8208 38.0126 35.1343 38.5406 35.0286 38.5406C34.8966 38.5406 34.8174 38.7254 34.8174 38.9365C34.8174 39.1477 34.2893 39.7813 33.6292 40.3356C32.7578 41.0484 32.4146 41.4971 32.441 41.9723C32.4674 42.4474 32.1241 42.8962 31.2528 43.6353C30.5927 44.1633 30.0646 44.7704 30.0646 44.9552C30.0646 45.1136 28.982 46.2751 27.6618 47.5158C26.3152 48.7565 25.1798 49.786 25.0741 49.8124C24.9949 49.8388 23.8595 51.0267 22.5393 52.4521C20.6646 54.4584 20.1101 55.2767 19.5556 57.4149L19.0275 56.227C18.7107 55.5671 18.3938 54.4584 18.2882 53.7192C18.1562 52.7161 18.2618 51.9242 18.6843 50.4987C19.1595 48.8357 19.4764 48.3077 20.8758 46.8294C21.8 45.8527 23.6747 44.1105 25.0477 42.9754C26.4208 41.8139 28.7444 40.0716 30.1966 39.0685Z" fill="#676765"/>
<path d="M61.8028 28.0607C62.1461 28.1399 62.6477 28.0871 62.9382 27.9815C63.2286 27.8495 63.9944 27.744 64.6545 27.744C65.3146 27.744 66.0011 27.8232 66.1859 27.9287C66.45 28.0607 66.45 28.1927 66.1067 28.5095C65.8691 28.7207 65.6843 29.0902 65.7107 29.3014C65.7107 29.5126 65.1826 30.2253 64.5225 30.8853C63.8623 31.5452 63.3343 32.1788 63.3078 32.3371C63.3078 32.4955 62.7798 33.0499 62.1461 33.5778C61.4859 34.1322 60.9579 34.6865 60.9579 34.8449C60.9579 35.0033 59.9281 36.2704 58.6607 37.6695C57.3668 39.0686 56.1258 40.4412 55.8882 40.7052C55.6241 40.9692 55.3337 41.4443 55.2545 41.7611C55.1753 42.1043 55.1753 42.8962 55.2281 43.5562C55.3073 44.2161 55.4129 44.9816 55.4657 45.272C55.5185 45.5888 55.3865 45.8264 55.1489 45.8264C54.9376 45.8527 54.6472 45.9055 54.4888 45.9319C54.3303 45.9847 54.1191 46.0375 53.9607 46.0639C53.8022 46.1167 53.6174 46.1431 53.5118 46.1695C53.3798 46.1695 53.2213 46.2487 53.1157 46.2751C52.9837 46.3279 52.5612 46.5127 52.1123 46.6975C51.6635 46.8823 51.0826 47.067 50.7921 47.1198C50.5017 47.1726 50.2376 47.2254 50.2112 47.2254C50.1584 47.2518 50.0528 47.2782 49.9472 47.331C49.8152 47.3574 49.4983 47.5422 49.2079 47.727C48.9174 47.8854 48.6006 47.9382 48.4685 47.8326C48.3629 47.727 48.2837 47.8062 48.2837 47.9646C48.2837 48.2285 48.1253 48.2021 47.6236 47.9118C47.2539 47.7006 46.9107 47.5158 46.8315 47.5158C46.7522 47.5158 46.6994 47.727 46.6994 47.9646C46.673 48.3605 46.5938 48.3077 46.1449 47.7798C45.8017 47.3574 45.6168 46.7503 45.6433 46.0639C45.6433 45.4832 45.8809 44.6121 46.1713 44.1633C46.4618 43.6881 46.6994 43.0546 46.6994 42.7642C46.6994 42.4475 47.2011 41.8139 47.8876 41.2596C48.8382 40.4676 49.0758 40.0981 49.0758 39.4645C49.0758 38.831 49.2871 38.5142 50.264 37.8279C51.3202 37.0359 51.4522 36.8511 51.4522 35.9008C51.4522 35.1089 51.5843 34.8185 51.9011 34.7129C52.1652 34.6601 52.6932 34.3698 53.0893 34.053C53.6438 33.657 53.8286 33.3139 53.8286 32.6011C53.8286 31.7828 53.9607 31.598 55.0168 31.0173C55.941 30.5157 56.205 30.4365 56.205 30.7533C56.205 31.0437 56.6803 30.9117 58.1326 30.2253C59.1623 29.6974 60.1921 29.3014 60.3505 29.3014C60.5354 29.3014 60.7994 28.9846 60.9579 28.6151C61.1427 28.0871 61.3539 27.9551 61.8028 28.0607Z" fill="#676765"/>
<path d="M94.2275 37.8542C94.1483 37.7751 94.8084 37.0623 95.6533 36.2968C96.5247 35.5049 97.4224 34.8977 97.6865 34.9241C97.9505 34.9505 98.1618 35.0561 98.1618 35.1617C98.1882 35.2673 98.3202 35.3201 98.4522 35.2409C98.6106 35.1617 98.7163 35.2145 98.7163 35.3729C98.7163 35.5313 98.8483 35.584 98.9803 35.5049C99.1387 35.4257 99.2443 35.4785 99.2443 35.6368C99.2443 35.7952 99.4292 35.9008 99.6404 35.9008C99.8516 35.9008 100.036 36.0064 100.036 36.1648C100.036 36.3232 100.168 36.376 100.301 36.2968C100.459 36.2176 100.617 36.3232 100.644 36.4816C100.697 36.6664 100.353 37.0887 99.8516 37.4055C99.3764 37.7487 98.9803 38.1182 98.9803 38.2766C98.9803 38.435 98.505 38.9893 97.9241 39.5173C97.3168 40.0717 96.8415 40.5996 96.8679 40.7052C96.8679 40.8372 97.1584 40.9692 97.528 41.0484C97.8977 41.1276 98.1882 41.2859 98.1882 41.4443C98.1882 41.6027 98.373 41.7083 98.5842 41.7083C98.7955 41.7083 98.9803 41.8139 98.9803 41.9723C98.9803 42.1307 99.1651 42.2363 99.3764 42.2363C99.5876 42.2363 99.7724 42.3946 99.7724 42.553C99.7724 42.7378 98.9803 43.7937 98.0297 44.876C97.0528 45.9583 96.155 46.8822 96.023 46.9086C95.9174 46.9614 95.8118 46.8294 95.8118 46.6447C95.8118 46.4863 95.4157 46.1167 94.8876 45.8527C94.3859 45.6152 93.6994 45.404 93.3825 45.404C93.0129 45.404 92.5376 45.7207 92.1151 46.2487C91.6399 46.8822 91.455 47.5158 91.4022 48.6245C91.3494 49.4692 91.2702 50.1556 91.191 50.1556C91.1118 50.1556 90.7685 49.9972 90.3988 49.8124C90.0292 49.654 89.7387 49.4164 89.7387 49.2844C89.7387 49.1788 89.6331 49.1524 89.4747 49.2316C89.3427 49.3108 89.2106 49.258 89.2106 49.0996C89.2106 48.9413 89.105 48.8885 88.9466 48.9677C88.8146 49.0469 88.4977 48.9149 88.2865 48.7037C88.0488 48.4661 87.8904 47.8062 87.8904 47.0406C87.8904 46.3543 88.1016 45.4304 88.3393 44.9552C88.6033 44.4801 90.0556 42.7114 91.5606 41.0484C93.0921 39.3853 94.2803 37.9334 94.2275 37.8542Z" fill="#676765"/>
<path d="M75.1899 57.0189C75.137 56.9134 75.4011 56.7022 75.7444 56.5438C76.114 56.3854 76.4837 56.2534 76.6157 56.2534C76.7213 56.227 76.8533 56.3326 76.9326 56.491C77.0118 56.6494 77.2494 56.7022 77.4606 56.623C77.6719 56.5438 77.9095 56.5966 77.9887 56.755C78.0679 56.9134 78.2528 56.9661 78.3848 56.887C78.5432 56.8078 79.0713 56.9397 80.4972 57.5469L79.5202 58.286C78.9657 58.7084 78.0679 59.6059 77.5399 60.2659C76.9854 60.9522 76.5365 61.5593 76.5365 61.6385C76.5365 61.7177 76.8269 61.7705 77.1966 61.7705C77.5663 61.7705 77.8567 61.8761 77.8567 62.0345C77.8567 62.1929 78.0943 62.2985 78.3848 62.2985C78.6752 62.2985 79.1505 62.5097 79.4146 62.7472C79.9144 63.2207 79.8638 63.2748 75.3975 68.0533L75.3483 68.106L73.5 67.9212C72.4966 67.842 71.3348 67.842 70.9387 67.9476C70.2258 68.106 70.1994 68.1588 70.1994 69.8218C70.1994 70.8777 70.305 71.4849 70.4635 71.4057C70.6219 71.3265 70.7275 71.4321 70.7275 71.5904C70.7275 71.828 70.0938 71.96 66.5028 72.0656L66.1067 71.1945C65.8163 70.5609 65.7371 70.4817 65.6842 71.4057L65.4466 70.8777C65.3146 70.5873 65.209 69.8746 65.1826 69.2938C65.1562 68.4227 65.341 68.0268 66.1595 67.05C66.714 66.4165 68.4039 64.5159 69.9354 62.8264C71.4668 61.1634 73.2887 59.2099 74.0017 58.4972C74.7146 57.7845 75.2427 57.1245 75.1899 57.0189Z" fill="#676765"/>
<path d="M66.1067 28.5887C66.318 28.4039 66.4236 28.14 66.3444 27.9816C66.2387 27.8232 67.1893 27.7176 68.9848 27.7176C70.6747 27.7176 71.7837 27.8232 71.7837 27.9816C71.7837 28.14 71.4932 28.4303 71.1236 28.6415C70.7539 28.8791 70.4635 29.2751 70.4635 29.6182C70.4371 30.0142 69.5657 31.1493 68.0871 32.7331C66.7932 34.1058 65.7371 35.3465 65.7371 35.5049C65.7107 35.6633 65.2354 36.244 64.6545 36.8248C64.0472 37.4055 63.0966 38.4614 62.5421 39.2006C61.6972 40.2829 61.5123 40.7316 61.4859 41.7083C61.4859 42.3947 61.6972 43.213 61.9612 43.6882C62.2781 44.1633 62.3309 44.5065 62.1725 44.5329C62.014 44.5857 61.3539 44.6649 60.6938 44.7705C60.0337 44.8497 59.2152 44.9553 58.8455 45.0081C58.4758 45.0608 57.9477 45.1928 57.6573 45.272C57.3404 45.3776 56.9444 45.2984 56.6539 45.0344C56.2314 44.6385 56.205 44.6649 55.941 45.8L55.5449 45.14C55.3337 44.7705 55.1753 43.9257 55.1489 43.213C55.1489 42.5267 55.3337 41.6292 55.5449 41.1804C55.7562 40.7316 56.0202 40.3621 56.1258 40.3093C56.2579 40.2829 57.3668 39.095 58.6343 37.6959C59.9281 36.2704 60.9579 35.0033 60.9579 34.845C60.9579 34.6866 61.4859 34.1322 62.1461 33.6043C62.7798 33.0499 63.3079 32.4956 63.3079 32.3372C63.3343 32.1788 63.8623 31.5452 64.5225 30.8853C65.1826 30.2254 65.7107 29.5126 65.7107 29.3014C65.6843 29.0903 65.8691 28.7471 66.1067 28.5887Z" fill="#676765"/>
<path d="M36.1112 51.7922C36.1112 51.4491 36.296 50.8419 36.5337 50.4196C36.7449 49.9708 37.009 49.6276 37.0618 49.6276C37.141 49.6276 37.1938 50.5515 37.1674 53.7193L36.6393 53.0593C36.3489 52.6898 36.1112 52.1354 36.1112 51.7922Z" fill="#676765"/>
<path d="M34.2893 53.9832C34.2893 53.6137 34.3685 53.1385 34.4477 52.9273C34.5269 52.7162 34.659 52.5314 34.7118 52.5314C34.7646 52.5314 34.8174 53.0593 34.8174 53.7193C34.8174 54.432 34.7118 54.8544 34.5534 54.7752C34.3949 54.696 34.2893 54.3528 34.2893 53.9832Z" fill="#676765"/>
</svg>
